<?xml version="1.0" standalone="no"?><!-- Generator: Gravit.io --><svg xmlns="http://www.w3.org/2000/svg" xmlns:xlink="http://www.w3.org/1999/xlink" style="isolation:isolate" viewBox="0 0 1920 1080" width="1920" height="1080"><g><path d=" M 416.344 409.246 Q 405.944 384.846 423.344 367.246 Q 421.944 351.846 426.344 346.246 L 430.344 335.246 Q 428.725 335.149 423.344 335.246 C 421.471 321.806 422.773 287.119 423.344 232.246 Q 427.944 218.846 437.344 210.246 Q 439.666 210.218 444.344 210.246 C 447.28 204.505 451.382 185.012 452.344 181.246 L 533.344 181.246 L 540.344 208.246 L 936.543 208.246 C 939.303 208.246 941.543 210.486 941.543 213.246 L 941.543 223.246 L 1124.543 223.246 L 1123.943 214.233 C 1123.722 210.929 1126.232 208.246 1129.543 208.246 L 1425.344 208.246 L 1433.344 181.246 L 1452.344 181.246 L 1475.344 208.246 L 1489.344 208.246 C 1495.967 208.246 1501.344 213.623 1501.344 220.246 L 1501.344 232.246 L 1507.344 232.246 C 1510.103 232.246 1512.318 234.486 1512.287 237.246 L 1511.344 320.246 C 1510.521 325.207 1508.541 326.56 1501.344 326.246 L 1501.344 359.246 L 1501.344 418.246 L 1501.344 434.246 C 1501.344 450.252 1488.353 463.572 1472.353 463.974 L 1262.344 469.246 C 1233.456 478.536 1215.799 492.546 1209.344 519.246 C 1206.023 536.856 1209.137 571.04 1212.543 598.858 C 1215.257 621.018 1227.968 649.346 1228.1 650.341 C 1228.897 656.36 1224.616 661.352 1218.546 661.483 L 960.342 667.052 C 955.376 667.159 947.38 666.503 942.498 665.588 C 938.493 664.837 920.626 659.482 914.002 651.901 C 913.639 651.485 912.963 650.912 912.494 650.621 C 898.006 641.643 891.572 639.365 878.344 638.246 C 860.411 640.496 849.098 645.182 844.344 658.246 L 775.344 832.246 C 773.684 842.507 782.818 870.743 782.818 870.743 C 783.66 871.573 783.23 873.65 781.859 875.38 C 778.323 879.841 767.666 882.851 752.344 881.246 C 747.459 877.484 744.136 875.827 742.344 872.246 C 743.61 887.579 738.62 896.256 727.344 898.246 L 483.781 873.738 C 476.023 862.148 478.93 847.332 499.344 832.246 C 489.61 822.246 476.954 830.923 464.816 852.168 C 462.9 855.523 458.749 856.484 455.553 854.313 L 412.48 825.055 C 410.197 823.505 408.05 820.025 407.689 817.289 C 402.322 776.652 421.951 724.711 447.577 681.473 C 455.175 668.654 470.219 650.024 481.15 639.897 C 487.881 633.661 502.6 603.617 511.344 576.246 C 552.151 472.611 520.495 416.955 416.344 409.246 Z  M 1111.344 634.246 L 952.344 634.246 C 948.48 634.246 942.547 632.826 939.102 631.077 C 871.544 596.779 876.21 513.779 951.344 487.246 L 1113.383 469.987 C 1117.225 469.578 1123.406 469.925 1127.178 470.761 C 1150.61 475.957 1166.954 489.634 1175.344 516.246 C 1180.565 542.165 1181.242 571.508 1171.344 598.246 C 1161.231 617.689 1146.241 627.033 1129.014 631.831 C 1124.229 633.164 1116.311 634.246 1111.344 634.246 Z " fill-rule="evenodd" fill="rgb(47,47,47)" vector-effect="non-scaling-stroke" stroke-width="1" stroke="rgb(0,0,0)" stroke-linejoin="miter" stroke-linecap="square" stroke-miterlimit="3"/><path d=" M 1030.908 596.329 C 1030.908 596.329 991.585 577.673 947.5 555.879 L 954.5 540.879 C 938.966 538.945 921.976 535.288 903.5 529.879 C 909.691 513.098 924.367 498.108 947.5 484.879 C 988.25 520.039 1027.603 562.392 1033.472 568.946 C 1056.668 594.849 1055.519 607.119 1030.908 596.329 Z " fill="rgb(47,47,47)" vector-effect="non-scaling-stroke" stroke-width="1" stroke="rgb(0,0,0)" stroke-linejoin="miter" stroke-linecap="square" stroke-miterlimit="3"/><path d=" M 999.145 474.43 C 992.133 521.151 1015.143 575.002 1037.417 604.234 C 1044.442 613.453 1041.071 618.444 1029.895 615.373 C 1004.37 608.357 965.38 581.367 951.145 545.938 C 932.3 537.315 915.08 523.151 904.581 510.43 C 921.292 485.03 954.532 472.373 999.145 474.43 Z " fill="rgb(0,0,0)" vector-effect="non-scaling-stroke" stroke-width="1" stroke="rgb(0,0,0)" stroke-linejoin="miter" stroke-linecap="square" stroke-miterlimit="3"/><clipPath id="_clipPath_EG9LzVRm89W7Cv23d4sNHQplMIl12Q0o"><path d=" M 999.145 474.43 C 992.133 521.151 1015.143 575.002 1037.417 604.234 C 1044.442 613.453 1041.071 618.444 1029.895 615.373 C 1004.37 608.357 965.38 581.367 951.145 545.938 C 932.3 537.315 915.08 523.151 904.581 510.43 C 921.292 485.03 954.532 472.373 999.145 474.43 Z " fill="rgb(0,0,0)" vector-effect="non-scaling-stroke" stroke-width="1" stroke="rgb(0,0,0)" stroke-linejoin="miter" stroke-linecap="square" stroke-miterlimit="3"/></clipPath><g clip-path="url(#_clipPath_EG9LzVRm89W7Cv23d4sNHQplMIl12Q0o)"><path d=" M 998.543 474.43 C 991.532 521.151 1001.143 575.002 1023.417 604.234 C 1030.442 613.453 1027.071 618.444 1015.895 615.373 C 990.37 608.357 951.38 581.367 937.145 545.938 C 918.3 537.315 901.08 523.151 890.581 510.43 C 907.292 485.03 953.931 472.373 998.543 474.43 Z " fill="rgb(47,47,47)" vector-effect="non-scaling-stroke" stroke-width="1" stroke="rgb(0,0,0)" stroke-linejoin="miter" stroke-linecap="square" stroke-miterlimit="3"/></g><path d=" M 999.145 474.43 C 992.133 521.151 1015.143 575.002 1037.417 604.234 C 1044.442 613.453 1041.071 618.444 1029.895 615.373 C 1004.37 608.357 965.38 581.367 951.145 545.938 C 932.3 537.315 915.08 523.151 904.581 510.43 C 921.292 485.03 954.532 472.373 999.145 474.43 Z " fill="transparent" vector-effect="non-scaling-stroke" stroke-width="1" stroke="rgb(0,0,0)" stroke-linejoin="miter" stroke-linecap="square" stroke-miterlimit="3"/><path d=" M 423.543 232.246 C 425.287 227.758 425.743 228.227 427.543 228.246 L 1445.543 232.246 L 1452.344 239.246 L 423.543 232.246 Z " fill="rgb(121,121,121)"/><linearGradient id="_lgradient_0" x1="0.7160945642723711" y1="0.2976464552218593" x2="0.48190901820612997" y2="-0.1537054849396885" gradientTransform="matrix(801.8,0,0,522.267,699.543,359.246)" gradientUnits="userSpaceOnUse"><stop offset="1.3043478260869565%" stop-opacity="1" style="stop-color:rgb(25,25,25)"/><stop offset="97.82608695652173%" stop-opacity="1" style="stop-color:rgb(47,47,47)"/></linearGradient><path d=" M 1501.344 359.754 L 1466.781 359.246 L 1467.781 413.246 L 1107.781 444.03 C 1086.98 472.738 1027.48 476.238 1015.088 453.666 L 917.042 462.613 C 876.919 466.274 833.185 499.994 819.441 537.867 L 699.543 868.246 L 742.344 872.754 L 752.344 881.246 C 769.715 882.443 780.12 879.623 783.528 872.754 L 775.774 843.01 C 774.8 839.271 775.128 833.306 776.506 829.697 L 879.758 559.273 C 893.568 523.103 924.168 490.303 948.047 486.071 C 948.047 486.071 1032.714 478.071 1120.344 469.246 C 1129.974 468.603 1134.594 476.115 1144.781 475.494 C 1252.357 468.939 1356.863 463.828 1470.344 464.543 C 1487.453 464.65 1501.344 450.847 1501.344 433.738 L 1501.344 359.754 Z " fill="url(#_lgradient_0)"/><g opacity="0.82"><path d=" M 424.543 228.246 L 1446.543 232.246 L 1467.781 254.246 L 1452.107 359.246 L 1466.781 359.246 L 1501.344 359.754 L 1501.344 222.246 C 1501.344 214.519 1495.071 208.255 1487.344 208.265 L 1128.894 208.754 C 1127.277 208.187 1125.503 209.823 1123.543 213.246 L 942.521 213.246 L 936.518 208.246 L 445.543 208.754 L 443.969 210.22 L 437.543 210.246 C 432.186 214.902 428.662 218.246 424.543 228.246 Z " fill="rgb(0,0,0)" vector-effect="non-scaling-stroke" stroke-width="1" stroke="rgb(0,0,0)" stroke-linejoin="miter" stroke-linecap="square" stroke-miterlimit="3"/></g><linearGradient id="_lgradient_1" x1="0.49999999999999994" y1="0.4954545454545471" x2="0.5000000000000003" y2="1.018181818181819" gradientTransform="matrix(171.427,0,0,181.6,412.596,358.646)" gradientUnits="userSpaceOnUse"><stop offset="0.8695652173913043%" stop-opacity="1" style="stop-color:rgb(22,22,22)"/><stop offset="96.52173913043478%" stop-opacity="1" style="stop-color:rgb(47,47,47)"/></linearGradient><path d=" M 416.344 410.333 C 409.61 395.713 411.953 380.36 423.344 364.246 C 578.156 340.369 593.457 391.712 580.344 540.246 L 525.543 533.246 C 541.242 456.65 504.852 415.689 416.344 410.333 Z " fill="url(#_lgradient_1)"/><linearGradient id="_lgradient_2" x1="0.5525799160110237" y1="-1.5635627178462517" x2="0.5373393571157319" y2="0.7378087062223246" gradientTransform="matrix(140.399,0,0,39.569,634.543,569.953)" gradientUnits="userSpaceOnUse"><stop offset="2.1739130434782608%" stop-opacity="1" style="stop-color:rgb(0,0,0)"/><stop offset="98.26086956521739%" stop-opacity="1" style="stop-color:rgb(47,47,47)"/></linearGradient><path d=" M 762.49 570.26 C 732.344 577.213 694.66 577.223 649.408 570.26 C 631.382 568.389 629.761 575.075 644.49 590.26 C 686.499 614.527 725.841 615.87 762.49 594.26 C 779.084 580.944 779.102 572.964 762.49 570.26 Z " fill="url(#_lgradient_2)"/><path d=" M 423.344 368.246 L 1501.543 368.246 L 1501.543 359.246 L 1466.107 359.246 L 437.543 260.246 L 437.543 251.883 L 437.543 237.246 C 437.472 234.574 439.731 232.096 445.543 232.246 L 435.543 232.246 C 433.497 233.131 433.54 236.516 433.643 246.371 L 433.643 351.246 L 423.344 351.246 L 423.344 368.246 Z " fill="rgb(0,0,0)"/><path d=" M 412 395.246 C 413.798 389.339 414.715 384.374 417.665 380.349 C 422.379 373.914 428.564 369.882 432.299 369.083 C 434.457 368.621 438.002 368.246 440.21 368.246 L 1255.543 368.246 L 1255.543 365.246 L 422 366 C 420.15 371.738 411.338 379.238 412 395.246 Z " fill="rgb(121,121,121)"/><linearGradient id="_lgradient_3" x1="1.0408057851239665" y1="1.3666814666197098" x2="1.001205234159778" y2="0.0660591704899729" gradientTransform="matrix(88,0,0,70.891,1199.543,365.355)" gradientUnits="userSpaceOnUse"><stop offset="0%" stop-opacity="1" style="stop-color:rgb(47,47,47)"/><stop offset="96.52173913043478%" stop-opacity="1" style="stop-color:rgb(0,0,0)"/></linearGradient><path d=" M 1287.543 368.246 C 1257.082 363.199 1236.743 365.796 1215.522 367.78 C 1212.774 368.037 1210.497 370.486 1210.44 373.245 L 1209.344 426.246 C 1208.806 431.846 1207.347 432.316 1199.543 436.246 L 1287.543 429.246 L 1287.543 368.246 Z " fill="url(#_lgradient_3)"/><path d=" M 727.543 898.754 C 738.985 896.464 743.849 887.807 742.107 872.754 L 499.344 832.246 C 489.186 838.962 476.245 853.509 481.354 869.919 C 482.011 872.027 484.327 873.92 486.523 874.144 L 727.543 898.754 Z " fill="rgb(47,47,47)" vector-effect="non-scaling-stroke" stroke-width="1" stroke="rgb(0,0,0)" stroke-linejoin="miter" stroke-linecap="square" stroke-miterlimit="3"/><clipPath id="_clipPath_IvUo4xtWPw1TGmgAO4CsNONdRtDFk9kV"><path d=" M 727.543 898.754 C 738.985 896.464 743.849 887.807 742.107 872.754 L 499.344 832.246 C 489.186 838.962 476.245 853.509 481.354 869.919 C 482.011 872.027 484.327 873.92 486.523 874.144 L 727.543 898.754 Z " fill="rgb(47,47,47)" vector-effect="non-scaling-stroke" stroke-width="1" stroke="rgb(0,0,0)" stroke-linejoin="miter" stroke-linecap="square" stroke-miterlimit="3"/></clipPath><g clip-path="url(#_clipPath_IvUo4xtWPw1TGmgAO4CsNONdRtDFk9kV)"><linearGradient id="_lgradient_4" x1="0.4994853587637874" y1="1.1249335459861758" x2="0.7681766126595471" y2="1.1522271588061033" gradientTransform="matrix(370.563,0,0,114,473.543,797.246)" gradientUnits="userSpaceOnUse"><stop offset="0%" stop-opacity="1" style="stop-color:rgb(47,47,47)"/><stop offset="97.3913043478261%" stop-opacity="1" style="stop-color:rgb(0,0,0)"/></linearGradient><path d=" M 844.107 872.754 L 803.543 911.246 L 473.543 877.246 L 480.107 797.246 L 844.107 872.754 Z " fill="url(#_lgradient_4)" vector-effect="non-scaling-stroke" stroke-width="1" stroke="rgb(0,0,0)" stroke-linejoin="miter" stroke-linecap="square" stroke-miterlimit="3"/><path d=" M 849.543 852.754 L 798.543 885.246 L 466.543 837.246 L 485.543 777.246 L 849.543 852.754 Z " fill="rgb(0,0,0)" vector-effect="non-scaling-stroke" stroke-width="1" stroke="rgb(0,0,0)" stroke-linejoin="miter" stroke-linecap="square" stroke-miterlimit="3"/></g><path d=" M 727.543 898.754 C 738.985 896.464 743.849 887.807 742.107 872.754 L 499.344 832.246 C 489.186 838.962 476.245 853.509 481.354 869.919 C 482.011 872.027 484.327 873.92 486.523 874.144 L 727.543 898.754 Z " fill="transparent" vector-effect="non-scaling-stroke" stroke-width="1" stroke="rgb(0,0,0)" stroke-linejoin="miter" stroke-linecap="square" stroke-miterlimit="3"/><path d=" M 452.107 181.754 L 533.107 181.754 L 540.543 208.754 L 521.543 208.754 L 522.543 220.754 L 488.543 220.754 L 491.107 208.754 L 444.107 208.754 L 452.107 181.754 Z " fill="rgb(42,42,42)" vector-effect="non-scaling-stroke" stroke-width="1" stroke="rgb(0,0,0)" stroke-linejoin="miter" stroke-linecap="square" stroke-miterlimit="3"/><g><circle vector-effect="non-scaling-stroke" cx="988.4696947968309" cy="439.39096994609986" r="15.636998266412206" fill="rgb(0,0,0)" stroke-width="1" stroke="rgb(0,0,0)" stroke-linejoin="miter" stroke-linecap="butt" stroke-miterlimit="3"/><circle vector-effect="non-scaling-stroke" cx="988.4696947968308" cy="439.39096994609986" r="11.636998266412206" fill="rgb(68,68,68)" stroke-width="1" stroke="rgb(0,0,0)" stroke-linejoin="miter" stroke-linecap="butt" stroke-miterlimit="3"/></g><g opacity="0.42"><path d=" M 1425.107 208.754 L 1433.107 181.754 L 1452.107 181.754 L 1475.107 208.754 L 1425.107 208.754 Z " fill="rgb(100,100,101)" vector-effect="non-scaling-stroke" stroke-width="1" stroke="rgb(0,0,0)" stroke-linejoin="miter" stroke-linecap="square" stroke-miterlimit="3"/></g><path d=" M 807.28 363.055 L 766.161 362.176 C 760.091 362.046 752.635 366.172 749.52 371.383 C 744.199 380.286 747.498 394.187 753.48 400.322 C 755.407 402.298 759.211 403.93 761.971 403.964 L 804.051 404.488 C 807.914 404.536 812.251 401.677 813.731 398.108 C 816.012 392.606 818.098 378.846 817.804 373.255 C 817.514 367.743 812.798 363.173 807.28 363.055 Z " fill="rgb(59,59,59)" vector-effect="non-scaling-stroke" stroke-width="4" stroke="rgb(0,0,0)" stroke-linejoin="miter" stroke-linecap="square" stroke-miterlimit="3"/><clipPath id="_clipPath_hJJOfvOn2AIFkU3UW4f4KNoCvrFyMdlC"><path d=" M 807.28 363.055 L 766.161 362.176 C 760.091 362.046 752.635 366.172 749.52 371.383 C 744.199 380.286 747.498 394.187 753.48 400.322 C 755.407 402.298 759.211 403.93 761.971 403.964 L 804.051 404.488 C 807.914 404.536 812.251 401.677 813.731 398.108 C 816.012 392.606 818.098 378.846 817.804 373.255 C 817.514 367.743 812.798 363.173 807.28 363.055 Z " fill="rgb(59,59,59)" vector-effect="non-scaling-stroke" stroke-width="4" stroke="rgb(0,0,0)" stroke-linejoin="miter" stroke-linecap="square" stroke-miterlimit="3"/></clipPath><g clip-path="url(#_clipPath_hJJOfvOn2AIFkU3UW4f4KNoCvrFyMdlC)"><line x1="755.68" y1="373.93" x2="806.719" y2="373.733" vector-effect="non-scaling-stroke" stroke-width="2" stroke="rgb(0,0,0)" stroke-linejoin="miter" stroke-linecap="square" stroke-miterlimit="3"/><line x1="756.11" y1="383.92" x2="807.149" y2="383.723" vector-effect="non-scaling-stroke" stroke-width="2" stroke="rgb(0,0,0)" stroke-linejoin="miter" stroke-linecap="square" stroke-miterlimit="3"/><line x1="755.542" y1="393.954" x2="806.58" y2="393.757" vector-effect="non-scaling-stroke" stroke-width="2" stroke="rgb(0,0,0)" stroke-linejoin="miter" stroke-linecap="square" stroke-miterlimit="3"/></g><path d=" M 807.28 363.055 L 766.161 362.176 C 760.091 362.046 752.635 366.172 749.52 371.383 C 744.199 380.286 747.498 394.187 753.48 400.322 C 755.407 402.298 759.211 403.93 761.971 403.964 L 804.051 404.488 C 807.914 404.536 812.251 401.677 813.731 398.108 C 816.012 392.606 818.098 378.846 817.804 373.255 C 817.514 367.743 812.798 363.173 807.28 363.055 Z " fill="transparent" vector-effect="non-scaling-stroke" stroke-width="4" stroke="rgb(0,0,0)" stroke-linejoin="miter" stroke-linecap="square" stroke-miterlimit="3"/><path d=" M 1064.089 359.754 L 1071.543 346.246 L 1106.778 346.246 L 1150.543 359.754 L 1457.107 359.754 C 1462.074 359.754 1466.162 355.722 1466.23 350.755 L 1467.543 255.246 L 1452.344 239.246 L 442.543 232.28 C 439.784 232.261 437.536 234.486 437.526 237.246 L 437.124 354.754 C 437.114 357.514 439.347 359.754 442.107 359.754 L 1064.089 359.754 Z " fill="rgb(59,59,59)"/><path d=" M 821.107 243.246 C 804.84 255.779 804.85 266.631 821.107 278.754 L 950.107 278.754 C 952.376 287.476 957.053 290.486 967.824 294.754 C 981.444 295.654 1003.382 295.841 1034.107 295.754 C 1086.819 295.841 1080.107 296.421 1094.107 294.754 C 1129.44 285.754 1132.628 234.219 1123.543 213.246 L 922.107 213.246 L 922.107 242.754 L 821.107 243.246 Z " fill="rgb(42,42,42)" vector-effect="non-scaling-stroke" stroke-width="1" stroke="rgb(0,0,0)" stroke-linejoin="miter" stroke-linecap="square" stroke-miterlimit="3"/><path d=" M 488.107 228.754 L 508.107 228.754 L 508.107 359.754 L 488.107 359.754 L 488.107 228.754 L 488.107 228.754 L 488.107 228.754 L 488.107 228.754 L 488.107 228.754 L 488.107 228.754 Z  M 522.543 228.754 L 542.543 228.754 L 542.543 359.754 L 522.543 359.754 L 522.543 228.754 L 522.543 228.754 L 522.543 228.754 L 522.543 228.754 L 522.543 228.754 L 522.543 228.754 Z  M 557.107 228.754 L 577.107 228.754 L 577.107 359.754 L 557.107 359.754 L 557.107 228.754 L 557.107 228.754 L 557.107 228.754 L 557.107 228.754 L 557.107 228.754 Z  M 591.107 228.754 L 611.107 228.754 L 611.107 359.754 L 591.107 359.754 L 591.107 228.754 L 591.107 228.754 L 591.107 228.754 L 591.107 228.754 Z  M 626.107 228.754 L 646.107 228.754 L 646.107 359.754 L 626.107 359.754 L 626.107 228.754 L 626.107 228.754 L 626.107 228.754 Z  M 660.107 228.754 L 680.107 228.754 L 680.107 359.754 L 660.107 359.754 L 660.107 228.754 L 660.107 228.754 Z  M 694.107 228.754 L 714.107 228.754 L 714.107 359.754 L 694.107 359.754 L 694.107 228.754 Z " fill-rule="evenodd" fill="rgb(0,0,0)" vector-effect="non-scaling-stroke" stroke-width="1" stroke="rgb(0,0,0)" stroke-linejoin="miter" stroke-linecap="square" stroke-miterlimit="3"/><path d=" M 493.707 228.754 L 508.507 228.754 C 509.942 228.754 511.107 229.919 511.107 231.354 L 511.107 357.154 C 511.107 358.589 509.942 359.754 508.507 359.754 L 493.707 359.754 C 492.272 359.754 491.107 358.589 491.107 357.154 L 491.107 231.354 C 491.107 229.919 492.272 228.754 493.707 228.754 L 493.707 228.754 L 493.707 228.754 L 493.707 228.754 L 493.707 228.754 L 493.707 228.754 Z  M 528.843 228.754 L 542.243 228.754 C 544.065 228.754 545.543 230.233 545.543 232.054 L 545.543 356.454 C 545.543 358.275 544.065 359.754 542.243 359.754 L 528.843 359.754 C 527.022 359.754 525.543 358.275 525.543 356.454 L 525.543 232.054 C 525.543 230.233 527.022 228.754 528.843 228.754 L 528.843 228.754 L 528.843 228.754 L 528.843 228.754 L 528.843 228.754 L 528.843 228.754 Z  M 563.407 228.754 L 576.807 228.754 C 578.628 228.754 580.107 230.233 580.107 232.054 L 580.107 356.454 C 580.107 358.275 578.628 359.754 576.807 359.754 L 563.407 359.754 C 561.585 359.754 560.107 358.275 560.107 356.454 L 560.107 232.054 C 560.107 230.233 561.585 228.754 563.407 228.754 L 563.407 228.754 L 563.407 228.754 L 563.407 228.754 L 563.407 228.754 Z  M 597.407 228.754 L 610.807 228.754 C 612.628 228.754 614.107 230.233 614.107 232.054 L 614.107 356.454 C 614.107 358.275 612.628 359.754 610.807 359.754 L 597.407 359.754 C 595.585 359.754 594.107 358.275 594.107 356.454 L 594.107 232.054 C 594.107 230.233 595.585 228.754 597.407 228.754 L 597.407 228.754 L 597.407 228.754 L 597.407 228.754 Z  M 632.407 228.754 L 645.807 228.754 C 647.628 228.754 649.107 230.233 649.107 232.054 L 649.107 356.454 C 649.107 358.275 647.628 359.754 645.807 359.754 L 632.407 359.754 C 630.585 359.754 629.107 358.275 629.107 356.454 L 629.107 232.054 C 629.107 230.233 630.585 228.754 632.407 228.754 L 632.407 228.754 L 632.407 228.754 Z  M 666.407 228.754 L 679.807 228.754 C 681.628 228.754 683.107 230.233 683.107 232.054 L 683.107 356.454 C 683.107 358.275 681.628 359.754 679.807 359.754 L 666.407 359.754 C 664.585 359.754 663.107 358.275 663.107 356.454 L 663.107 232.054 C 663.107 230.233 664.585 228.754 666.407 228.754 L 666.407 228.754 Z  M 700.407 228.754 L 713.807 228.754 C 715.628 228.754 717.107 230.233 717.107 232.054 L 717.107 356.454 C 717.107 358.275 715.628 359.754 713.807 359.754 L 700.407 359.754 C 698.585 359.754 697.107 358.275 697.107 356.454 L 697.107 232.054 C 697.107 230.233 698.585 228.754 700.407 228.754 Z " fill-rule="evenodd" fill="rgb(47,47,47)" vector-effect="non-scaling-stroke" stroke-width="1" stroke="rgb(0,0,0)" stroke-linejoin="miter" stroke-linecap="square" stroke-miterlimit="3"/><linearGradient id="_lgradient_5" x1="0.17597205458823506" y1="0.42693284422568034" x2="0.5498676745352788" y2="0.4269328442256799" gradientTransform="matrix(121,0,0,106.815,1010.543,362.032)" gradientUnits="userSpaceOnUse"><stop offset="3.0434782608695654%" stop-opacity="1" style="stop-color:rgb(25,25,25)"/><stop offset="98.69565217391305%" stop-opacity="1" style="stop-color:rgb(47,47,47)"/></linearGradient><path d=" M 1014.799 447.026 L 1039.642 381.531 C 1041.795 375.855 1048.048 369.245 1053.597 366.781 C 1074.843 357.346 1110.102 360.117 1126.426 370.113 C 1129.251 371.842 1130.709 375.802 1129.681 378.95 L 1109.572 440.525 C 1108.03 445.247 1103.473 451.391 1099.402 454.237 C 1073.132 472.598 1036.251 474.45 1020.695 464.645 C 1015.092 461.113 1012.45 453.218 1014.799 447.026 Z " fill="url(#_lgradient_5)"/><linearGradient id="_lgradient_6" x1="0.5092277036651714" y1="-1.778325858503884" x2="0.49825094765264394" y2="0.8541409169772105" gradientTransform="matrix(186.252,0,0,68.343,610.699,461.582)" gradientUnits="userSpaceOnUse"><stop offset="0%" stop-opacity="1" style="stop-color:rgb(0,0,0)"/><stop offset="97.82608695652173%" stop-opacity="1" style="stop-color:rgb(47,47,47)"/></linearGradient><path d=" M 619.929 529.926 C 676.56 506.086 731.425 506.096 784.494 529.926 C 816.28 481.126 787.239 458.469 697.344 461.926 C 620.72 466.459 594.925 489.136 619.929 529.926 Z " fill="url(#_lgradient_6)"/><linearGradient id="_lgradient_7" x1="0.5246297232675667" y1="0.24019695561751317" x2="0.5022727978697108" y2="3.5983932612421876" gradientTransform="matrix(103,0,0,26.596,652.325,536.65)" gradientUnits="userSpaceOnUse"><stop offset="0%" stop-opacity="1" style="stop-color:rgb(47,47,47)"/><stop offset="98.69565217391305%" stop-opacity="1" style="stop-color:rgb(0,0,0)"/></linearGradient><path d=" M 755.325 553.663 C 728.077 566.288 682.743 566.592 652.325 553.663 C 685.223 530.97 723.868 530.988 755.325 553.663 Z " fill="url(#_lgradient_7)"/><path d=" M 941.543 213.246 L 941.543 278.754 L 920.543 278.754 L 922.107 250.246 L 863.045 250.246 L 838.481 246.935 C 834.652 246.419 831.543 249.137 831.543 253 L 831.543 278.754 L 821.107 278.754 C 805.493 265.507 805.503 254.009 821.107 243.246 L 920.543 242.754 L 920.543 213.246 L 941.543 213.246 Z " fill="rgb(0,0,0)" vector-effect="non-scaling-stroke" stroke-width="1" stroke="rgb(0,0,0)" stroke-linejoin="miter" stroke-linecap="square" stroke-miterlimit="3"/><g opacity="0.14"><path d=" M 452.344 852.246 C 443.206 788.5 466.672 723.174 510.203 677.14 C 555.182 628.893 571.156 571.591 570.589 485.246 C 570.564 481.382 568.205 477.574 565.325 476.746 L 565.325 476.746 C 562.445 475.918 560.454 478.363 560.881 482.203 C 569.145 556.398 548.236 623.716 497.319 677.14 C 449.425 733.232 431.707 789.287 444.107 847.246 L 452.344 852.246 Z " fill="rgb(121,121,121)"/></g><linearGradient id="_lgradient_8" x1="0.3833333333333541" y1="0.2551382660687587" x2="0.38333333333335423" y2="0.659815645241655" gradientTransform="matrix(12,0,0,96,1501.543,231.246)" gradientUnits="userSpaceOnUse"><stop offset="1.3043478260869565%" stop-opacity="1" style="stop-color:rgb(0,0,0)"/><stop offset="53.47826086956522%" stop-opacity="1" style="stop-color:rgb(121,121,121)"/><stop offset="98.26086956521739%" stop-opacity="1" style="stop-color:rgb(0,0,0)"/></linearGradient><path d=" M 1513.456 238.245 L 1512.431 320.247 C 1512.383 324.11 1509.207 327.246 1505.344 327.246 L 1501.543 327.246 L 1501.543 231.246 L 1506.543 231.246 C 1510.407 231.246 1513.504 234.382 1513.456 238.245 Z " fill="url(#_lgradient_8)" vector-effect="non-scaling-stroke" stroke-width="1" stroke="rgb(0,0,0)" stroke-linejoin="miter" stroke-linecap="square" stroke-miterlimit="3"/><path d=" M 737.697 407.297 L 731.543 405.246 L 734.543 414.246 L 733.543 422.246 L 740.543 416.246 L 823.05 416.246 L 831.543 422.246 L 829.278 413.246 L 834.543 405.246 L 825.953 407.488 C 824.351 407.906 824.029 407.324 825.234 406.189 L 829.36 402.303 C 830.565 401.168 832.819 400.671 834.39 401.195 L 837.697 402.297 C 839.268 402.821 840.543 404.59 840.543 406.246 L 840.543 417.246 C 840.543 423.317 835.615 428.246 829.543 428.246 L 738.344 428.246 C 732.273 428.246 727.344 423.317 727.344 417.246 L 727.344 403.246 C 727.344 401.59 728.688 400.246 730.344 400.246 L 731.543 400.246 C 733.199 400.246 735.35 401.321 736.343 402.646 L 738.743 405.846 C 739.737 407.171 739.268 407.821 737.697 407.297 Z " fill="rgb(34,34,34)"/><path d=" M 764.64 638.858 L 689.64 829.858 L 673.64 822.858 L 668.64 833.858 L 616.64 814.858 L 610.64 826.858 L 553.64 803.858 L 546.64 817.858 L 510.203 803.858 L 503.059 814.858 L 477.606 802.286 C 472.657 799.842 470.461 793.764 472.705 788.722 L 482.877 765.858 L 493.64 769.858 L 518.64 710.858 L 529.64 713.858 L 574.11 608.137 C 578.817 596.945 591.901 591.234 603.309 595.392 L 662.203 616.858 L 670.64 598.858 L 693.64 608.858 L 751.44 596.858 L 741.44 627.858 L 764.64 638.858 Z " fill="rgb(47,47,47)"/><clipPath id="_clipPath_K2Djh03NcUy8viuofCj9wltAAYaWaM5v"><path d=" M 764.64 638.858 L 689.64 829.858 L 673.64 822.858 L 668.64 833.858 L 616.64 814.858 L 610.64 826.858 L 553.64 803.858 L 546.64 817.858 L 510.203 803.858 L 503.059 814.858 L 477.606 802.286 C 472.657 799.842 470.461 793.764 472.705 788.722 L 482.877 765.858 L 493.64 769.858 L 518.64 710.858 L 529.64 713.858 L 574.11 608.137 C 578.817 596.945 591.901 591.234 603.309 595.392 L 662.203 616.858 L 670.64 598.858 L 693.64 608.858 L 751.44 596.858 L 741.44 627.858 L 764.64 638.858 Z " fill="rgb(47,47,47)"/></clipPath><g clip-path="url(#_clipPath_K2Djh03NcUy8viuofCj9wltAAYaWaM5v)"><g><rect x="576.621" y="600.211" width="8" height="8" transform="matrix(0.926,0.377,-0.377,0.926,270.563,-174.285)" fill="rgb(3,3,3)"/><rect x="590.514" y="605.865" width="8" height="8" transform="matrix(0.926,0.377,-0.377,0.926,273.719,-179.105)" fill="rgb(3,3,3)"/><rect x="604.408" y="611.518" width="8" height="8" transform="matrix(0.926,0.377,-0.377,0.926,276.875,-183.924)" fill="rgb(3,3,3)"/><rect x="618.302" y="617.172" width="8" height="8" transform="matrix(0.926,0.377,-0.377,0.926,280.031,-188.744)" fill="rgb(3,3,3)"/><rect x="632.195" y="622.826" width="8" height="8" transform="matrix(0.926,0.377,-0.377,0.926,283.186,-193.564)" fill="rgb(3,3,3)"/><rect x="646.089" y="628.48" width="8" height="8" transform="matrix(0.926,0.377,-0.377,0.926,286.342,-198.384)" fill="rgb(3,3,3)"/><rect x="659.983" y="634.134" width="8" height="8" transform="matrix(0.926,0.377,-0.377,0.926,289.498,-203.204)" fill="rgb(3,3,3)"/><rect x="673.876" y="639.788" width="8" height="8" transform="matrix(0.926,0.377,-0.377,0.926,292.654,-208.024)" fill="rgb(3,3,3)"/><rect x="687.77" y="645.441" width="8" height="8" transform="matrix(0.926,0.377,-0.377,0.926,295.809,-212.843)" fill="rgb(3,3,3)"/><rect x="701.664" y="651.095" width="8" height="8" transform="matrix(0.926,0.377,-0.377,0.926,298.965,-217.663)" fill="rgb(3,3,3)"/><rect x="715.558" y="656.749" width="8" height="8" transform="matrix(0.926,0.377,-0.377,0.926,302.121,-222.483)" fill="rgb(3,3,3)"/><rect x="729.451" y="662.403" width="8" height="8" transform="matrix(0.926,0.377,-0.377,0.926,305.277,-227.303)" fill="rgb(3,3,3)"/><rect x="743.345" y="668.057" width="8" height="8" transform="matrix(0.926,0.377,-0.377,0.926,308.432,-232.123)" fill="rgb(3,3,3)"/><rect x="757.239" y="673.71" width="8" height="8" transform="matrix(0.926,0.377,-0.377,0.926,311.588,-236.943)" fill="rgb(3,3,3)"/></g><g><rect x="581.689" y="586.849" width="8" height="8" transform="matrix(0.926,0.377,-0.377,0.926,265.901,-177.181)" fill="rgb(3,3,3)"/><rect x="595.582" y="592.503" width="8" height="8" transform="matrix(0.926,0.377,-0.377,0.926,269.056,-182)" fill="rgb(3,3,3)"/><rect x="609.476" y="598.156" width="8" height="8" transform="matrix(0.926,0.377,-0.377,0.926,272.212,-186.82)" fill="rgb(3,3,3)"/><rect x="623.37" y="603.81" width="8" height="8" transform="matrix(0.926,0.377,-0.377,0.926,275.368,-191.64)" fill="rgb(3,3,3)"/><rect x="637.263" y="609.464" width="8" height="8" transform="matrix(0.926,0.377,-0.377,0.926,278.524,-196.46)" fill="rgb(3,3,3)"/><rect x="651.157" y="615.118" width="8" height="8" transform="matrix(0.926,0.377,-0.377,0.926,281.679,-201.28)" fill="rgb(3,3,3)"/><rect x="665.051" y="620.772" width="8" height="8" transform="matrix(0.926,0.377,-0.377,0.926,284.835,-206.099)" fill="rgb(3,3,3)"/><rect x="678.944" y="626.426" width="8" height="8" transform="matrix(0.926,0.377,-0.377,0.926,287.991,-210.919)" fill="rgb(3,3,3)"/><rect x="692.838" y="632.079" width="8" height="8" transform="matrix(0.926,0.377,-0.377,0.926,291.147,-215.739)" fill="rgb(3,3,3)"/><rect x="706.732" y="637.733" width="8" height="8" transform="matrix(0.926,0.377,-0.377,0.926,294.302,-220.559)" fill="rgb(3,3,3)"/><rect x="720.625" y="643.387" width="8" height="8" transform="matrix(0.926,0.377,-0.377,0.926,297.458,-225.379)" fill="rgb(3,3,3)"/><rect x="734.519" y="649.041" width="8" height="8" transform="matrix(0.926,0.377,-0.377,0.926,300.614,-230.199)" fill="rgb(3,3,3)"/><rect x="748.413" y="654.695" width="8" height="8" transform="matrix(0.926,0.377,-0.377,0.926,303.77,-235.018)" fill="rgb(3,3,3)"/><rect x="762.306" y="660.348" width="8" height="8" transform="matrix(0.926,0.377,-0.377,0.926,306.926,-239.838)" fill="rgb(3,3,3)"/></g><g><rect x="586.689" y="573.849" width="8" height="8" transform="matrix(0.926,0.377,-0.377,0.926,261.369,-180.024)" fill="rgb(3,3,3)"/><rect x="600.582" y="579.503" width="8" height="8" transform="matrix(0.926,0.377,-0.377,0.926,264.525,-184.844)" fill="rgb(3,3,3)"/><rect x="614.476" y="585.156" width="8" height="8" transform="matrix(0.926,0.377,-0.377,0.926,267.681,-189.664)" fill="rgb(3,3,3)"/><rect x="628.37" y="590.81" width="8" height="8" transform="matrix(0.926,0.377,-0.377,0.926,270.837,-194.483)" fill="rgb(3,3,3)"/><rect x="642.263" y="596.464" width="8" height="8" transform="matrix(0.926,0.377,-0.377,0.926,273.992,-199.303)" fill="rgb(3,3,3)"/><rect x="656.157" y="602.118" width="8" height="8" transform="matrix(0.926,0.377,-0.377,0.926,277.148,-204.123)" fill="rgb(3,3,3)"/><rect x="670.051" y="607.772" width="8" height="8" transform="matrix(0.926,0.377,-0.377,0.926,280.304,-208.943)" fill="rgb(3,3,3)"/><rect x="683.944" y="613.426" width="8" height="8" transform="matrix(0.926,0.377,-0.377,0.926,283.46,-213.763)" fill="rgb(3,3,3)"/><rect x="697.838" y="619.079" width="8" height="8" transform="matrix(0.926,0.377,-0.377,0.926,286.615,-218.583)" fill="rgb(3,3,3)"/><rect x="711.732" y="624.733" width="8" height="8" transform="matrix(0.926,0.377,-0.377,0.926,289.771,-223.402)" fill="rgb(3,3,3)"/><rect x="725.625" y="630.387" width="8" height="8" transform="matrix(0.926,0.377,-0.377,0.926,292.927,-228.222)" fill="rgb(3,3,3)"/><rect x="739.519" y="636.041" width="8" height="8" transform="matrix(0.926,0.377,-0.377,0.926,296.083,-233.042)" fill="rgb(3,3,3)"/><rect x="753.413" y="641.695" width="8" height="8" transform="matrix(0.926,0.377,-0.377,0.926,299.239,-237.862)" fill="rgb(3,3,3)"/><rect x="767.306" y="647.348" width="8" height="8" transform="matrix(0.926,0.377,-0.377,0.926,302.394,-242.682)" fill="rgb(3,3,3)"/></g><g><rect x="593.617" y="561.219" width="8" height="8" transform="matrix(0.926,0.377,-0.377,0.926,257.12,-183.567)" fill="rgb(3,3,3)"/><rect x="607.511" y="566.873" width="8" height="8" transform="matrix(0.926,0.377,-0.377,0.926,260.276,-188.387)" fill="rgb(3,3,3)"/><rect x="621.405" y="572.527" width="8" height="8" transform="matrix(0.926,0.377,-0.377,0.926,263.432,-193.207)" fill="rgb(3,3,3)"/><rect x="635.299" y="578.18" width="8" height="8" transform="matrix(0.926,0.377,-0.377,0.926,266.587,-198.027)" fill="rgb(3,3,3)"/><rect x="649.192" y="583.834" width="8" height="8" transform="matrix(0.926,0.377,-0.377,0.926,269.743,-202.846)" fill="rgb(3,3,3)"/><rect x="663.086" y="589.488" width="8" height="8" transform="matrix(0.926,0.377,-0.377,0.926,272.899,-207.666)" fill="rgb(3,3,3)"/><rect x="676.98" y="595.142" width="8" height="8" transform="matrix(0.926,0.377,-0.377,0.926,276.055,-212.486)" fill="rgb(3,3,3)"/><rect x="690.873" y="600.796" width="8" height="8" transform="matrix(0.926,0.377,-0.377,0.926,279.21,-217.306)" fill="rgb(3,3,3)"/><rect x="704.767" y="606.45" width="8" height="8" transform="matrix(0.926,0.377,-0.377,0.926,282.366,-222.126)" fill="rgb(3,3,3)"/><rect x="718.661" y="612.103" width="8" height="8" transform="matrix(0.926,0.377,-0.377,0.926,285.522,-226.946)" fill="rgb(3,3,3)"/><rect x="732.554" y="617.757" width="8" height="8" transform="matrix(0.926,0.377,-0.377,0.926,288.678,-231.765)" fill="rgb(3,3,3)"/><rect x="746.448" y="623.411" width="8" height="8" transform="matrix(0.926,0.377,-0.377,0.926,291.833,-236.585)" fill="rgb(3,3,3)"/><rect x="760.342" y="629.065" width="8" height="8" transform="matrix(0.926,0.377,-0.377,0.926,294.989,-241.405)" fill="rgb(3,3,3)"/><rect x="774.235" y="634.719" width="8" height="8" transform="matrix(0.926,0.377,-0.377,0.926,298.145,-246.225)" fill="rgb(3,3,3)"/></g><g><rect x="598.689" y="547.849" width="8" height="8" transform="matrix(0.926,0.377,-0.377,0.926,252.454,-186.465)" fill="rgb(3,3,3)"/><rect x="612.582" y="553.503" width="8" height="8" transform="matrix(0.926,0.377,-0.377,0.926,255.61,-191.284)" fill="rgb(3,3,3)"/><rect x="626.476" y="559.156" width="8" height="8" transform="matrix(0.926,0.377,-0.377,0.926,258.766,-196.104)" fill="rgb(3,3,3)"/><rect x="640.37" y="564.81" width="8" height="8" transform="matrix(0.926,0.377,-0.377,0.926,261.922,-200.924)" fill="rgb(3,3,3)"/><rect x="654.263" y="570.464" width="8" height="8" transform="matrix(0.926,0.377,-0.377,0.926,265.078,-205.744)" fill="rgb(3,3,3)"/><rect x="668.157" y="576.118" width="8" height="8" transform="matrix(0.926,0.377,-0.377,0.926,268.233,-210.564)" fill="rgb(3,3,3)"/><rect x="682.051" y="581.772" width="8" height="8" transform="matrix(0.926,0.377,-0.377,0.926,271.389,-215.384)" fill="rgb(3,3,3)"/><rect x="695.944" y="587.426" width="8" height="8" transform="matrix(0.926,0.377,-0.377,0.926,274.545,-220.203)" fill="rgb(3,3,3)"/><rect x="709.838" y="593.079" width="8" height="8" transform="matrix(0.926,0.377,-0.377,0.926,277.701,-225.023)" fill="rgb(3,3,3)"/><rect x="723.732" y="598.733" width="8" height="8" transform="matrix(0.926,0.377,-0.377,0.926,280.856,-229.843)" fill="rgb(3,3,3)"/><rect x="737.625" y="604.387" width="8" height="8" transform="matrix(0.926,0.377,-0.377,0.926,284.012,-234.663)" fill="rgb(3,3,3)"/><rect x="751.519" y="610.041" width="8" height="8" transform="matrix(0.926,0.377,-0.377,0.926,287.168,-239.483)" fill="rgb(3,3,3)"/><rect x="765.413" y="615.695" width="8" height="8" transform="matrix(0.926,0.377,-0.377,0.926,290.324,-244.303)" fill="rgb(3,3,3)"/><rect x="779.306" y="621.348" width="8" height="8" transform="matrix(0.926,0.377,-0.377,0.926,293.479,-249.122)" fill="rgb(3,3,3)"/></g><g><rect x="571.617" y="613.219" width="8" height="8" transform="matrix(0.926,0.377,-0.377,0.926,275.097,-171.44)" fill="rgb(3,3,3)"/><rect x="585.511" y="618.873" width="8" height="8" transform="matrix(0.926,0.377,-0.377,0.926,278.253,-176.259)" fill="rgb(3,3,3)"/><rect x="599.405" y="624.527" width="8" height="8" transform="matrix(0.926,0.377,-0.377,0.926,281.409,-181.079)" fill="rgb(3,3,3)"/><rect x="613.299" y="630.18" width="8" height="8" transform="matrix(0.926,0.377,-0.377,0.926,284.565,-185.899)" fill="rgb(3,3,3)"/><rect x="627.192" y="635.834" width="8" height="8" transform="matrix(0.926,0.377,-0.377,0.926,287.72,-190.719)" fill="rgb(3,3,3)"/><rect x="641.086" y="641.488" width="8" height="8" transform="matrix(0.926,0.377,-0.377,0.926,290.876,-195.539)" fill="rgb(3,3,3)"/><rect x="654.98" y="647.142" width="8" height="8" transform="matrix(0.926,0.377,-0.377,0.926,294.032,-200.359)" fill="rgb(3,3,3)"/><rect x="668.873" y="652.796" width="8" height="8" transform="matrix(0.926,0.377,-0.377,0.926,297.188,-205.178)" fill="rgb(3,3,3)"/><rect x="682.767" y="658.45" width="8" height="8" transform="matrix(0.926,0.377,-0.377,0.926,300.343,-209.998)" fill="rgb(3,3,3)"/><rect x="696.661" y="664.103" width="8" height="8" transform="matrix(0.926,0.377,-0.377,0.926,303.499,-214.818)" fill="rgb(3,3,3)"/><rect x="710.554" y="669.757" width="8" height="8" transform="matrix(0.926,0.377,-0.377,0.926,306.655,-219.638)" fill="rgb(3,3,3)"/><rect x="724.448" y="675.411" width="8" height="8" transform="matrix(0.926,0.377,-0.377,0.926,309.811,-224.458)" fill="rgb(3,3,3)"/><rect x="738.342" y="681.065" width="8" height="8" transform="matrix(0.926,0.377,-0.377,0.926,312.966,-229.277)" fill="rgb(3,3,3)"/><rect x="752.235" y="686.719" width="8" height="8" transform="matrix(0.926,0.377,-0.377,0.926,316.122,-234.097)" fill="rgb(3,3,3)"/></g><g><rect x="566.358" y="626.361" width="8" height="8" transform="matrix(0.926,0.377,-0.377,0.926,279.663,-168.488)" fill="rgb(3,3,3)"/><rect x="580.252" y="632.015" width="8" height="8" transform="matrix(0.926,0.377,-0.377,0.926,282.819,-173.308)" fill="rgb(3,3,3)"/><rect x="594.145" y="637.669" width="8" height="8" transform="matrix(0.926,0.377,-0.377,0.926,285.974,-178.128)" fill="rgb(3,3,3)"/><rect x="608.039" y="643.323" width="8" height="8" transform="matrix(0.926,0.377,-0.377,0.926,289.13,-182.947)" fill="rgb(3,3,3)"/><rect x="621.933" y="648.976" width="8" height="8" transform="matrix(0.926,0.377,-0.377,0.926,292.286,-187.767)" fill="rgb(3,3,3)"/><rect x="635.826" y="654.63" width="8" height="8" transform="matrix(0.926,0.377,-0.377,0.926,295.442,-192.587)" fill="rgb(3,3,3)"/><rect x="649.72" y="660.284" width="8" height="8" transform="matrix(0.926,0.377,-0.377,0.926,298.598,-197.407)" fill="rgb(3,3,3)"/><rect x="663.614" y="665.938" width="8" height="8" transform="matrix(0.926,0.377,-0.377,0.926,301.753,-202.227)" fill="rgb(3,3,3)"/><rect x="677.507" y="671.592" width="8" height="8" transform="matrix(0.926,0.377,-0.377,0.926,304.909,-207.046)" fill="rgb(3,3,3)"/><rect x="691.401" y="677.246" width="8" height="8" transform="matrix(0.926,0.377,-0.377,0.926,308.065,-211.866)" fill="rgb(3,3,3)"/><rect x="705.295" y="682.899" width="8" height="8" transform="matrix(0.926,0.377,-0.377,0.926,311.221,-216.686)" fill="rgb(3,3,3)"/><rect x="719.188" y="688.553" width="8" height="8" transform="matrix(0.926,0.377,-0.377,0.926,314.376,-221.506)" fill="rgb(3,3,3)"/><rect x="733.082" y="694.207" width="8" height="8" transform="matrix(0.926,0.377,-0.377,0.926,317.532,-226.326)" fill="rgb(3,3,3)"/><rect x="746.976" y="699.861" width="8" height="8" transform="matrix(0.926,0.377,-0.377,0.926,320.688,-231.146)" fill="rgb(3,3,3)"/></g><g><rect x="561.287" y="639.731" width="8" height="8" transform="matrix(0.926,0.377,-0.377,0.926,284.328,-165.59)" fill="rgb(3,3,3)"/><rect x="575.181" y="645.385" width="8" height="8" transform="matrix(0.926,0.377,-0.377,0.926,287.484,-170.41)" fill="rgb(3,3,3)"/><rect x="589.074" y="651.039" width="8" height="8" transform="matrix(0.926,0.377,-0.377,0.926,290.64,-175.23)" fill="rgb(3,3,3)"/><rect x="602.968" y="656.693" width="8" height="8" transform="matrix(0.926,0.377,-0.377,0.926,293.796,-180.05)" fill="rgb(3,3,3)"/><rect x="616.862" y="662.347" width="8" height="8" transform="matrix(0.926,0.377,-0.377,0.926,296.951,-184.87)" fill="rgb(3,3,3)"/><rect x="630.755" y="668.001" width="8" height="8" transform="matrix(0.926,0.377,-0.377,0.926,300.107,-189.689)" fill="rgb(3,3,3)"/><rect x="644.649" y="673.654" width="8" height="8" transform="matrix(0.926,0.377,-0.377,0.926,303.263,-194.509)" fill="rgb(3,3,3)"/><rect x="658.543" y="679.308" width="8" height="8" transform="matrix(0.926,0.377,-0.377,0.926,306.419,-199.329)" fill="rgb(3,3,3)"/><rect x="672.436" y="684.962" width="8" height="8" transform="matrix(0.926,0.377,-0.377,0.926,309.575,-204.149)" fill="rgb(3,3,3)"/><rect x="686.33" y="690.616" width="8" height="8" transform="matrix(0.926,0.377,-0.377,0.926,312.73,-208.969)" fill="rgb(3,3,3)"/><rect x="700.224" y="696.27" width="8" height="8" transform="matrix(0.926,0.377,-0.377,0.926,315.886,-213.789)" fill="rgb(3,3,3)"/><rect x="714.117" y="701.923" width="8" height="8" transform="matrix(0.926,0.377,-0.377,0.926,319.042,-218.608)" fill="rgb(3,3,3)"/><rect x="728.011" y="707.577" width="8" height="8" transform="matrix(0.926,0.377,-0.377,0.926,322.198,-223.428)" fill="rgb(3,3,3)"/><rect x="741.905" y="713.231" width="8" height="8" transform="matrix(0.926,0.377,-0.377,0.926,325.353,-228.248)" fill="rgb(3,3,3)"/></g><g><rect x="555.657" y="652.803" width="8" height="8" transform="matrix(0.926,0.377,-0.377,0.926,288.84,-162.504)" fill="rgb(3,3,3)"/><rect x="569.551" y="658.456" width="8" height="8" transform="matrix(0.926,0.377,-0.377,0.926,291.996,-167.324)" fill="rgb(3,3,3)"/><rect x="583.445" y="664.11" width="8" height="8" transform="matrix(0.926,0.377,-0.377,0.926,295.151,-172.144)" fill="rgb(3,3,3)"/><rect x="597.338" y="669.764" width="8" height="8" transform="matrix(0.926,0.377,-0.377,0.926,298.307,-176.964)" fill="rgb(3,3,3)"/><rect x="611.232" y="675.418" width="8" height="8" transform="matrix(0.926,0.377,-0.377,0.926,301.463,-181.784)" fill="rgb(3,3,3)"/><rect x="625.126" y="681.072" width="8" height="8" transform="matrix(0.926,0.377,-0.377,0.926,304.619,-186.603)" fill="rgb(3,3,3)"/><rect x="639.019" y="686.725" width="8" height="8" transform="matrix(0.926,0.377,-0.377,0.926,307.775,-191.423)" fill="rgb(3,3,3)"/><rect x="652.913" y="692.379" width="8" height="8" transform="matrix(0.926,0.377,-0.377,0.926,310.93,-196.243)" fill="rgb(3,3,3)"/><rect x="666.807" y="698.033" width="8" height="8" transform="matrix(0.926,0.377,-0.377,0.926,314.086,-201.063)" fill="rgb(3,3,3)"/><rect x="680.7" y="703.687" width="8" height="8" transform="matrix(0.926,0.377,-0.377,0.926,317.242,-205.883)" fill="rgb(3,3,3)"/><rect x="694.594" y="709.341" width="8" height="8" transform="matrix(0.926,0.377,-0.377,0.926,320.398,-210.703)" fill="rgb(3,3,3)"/><rect x="708.488" y="714.994" width="8" height="8" transform="matrix(0.926,0.377,-0.377,0.926,323.553,-215.522)" fill="rgb(3,3,3)"/><rect x="722.381" y="720.648" width="8" height="8" transform="matrix(0.926,0.377,-0.377,0.926,326.709,-220.342)" fill="rgb(3,3,3)"/><rect x="736.275" y="726.302" width="8" height="8" transform="matrix(0.926,0.377,-0.377,0.926,329.865,-225.162)" fill="rgb(3,3,3)"/></g><g><rect x="550.586" y="666.173" width="8" height="8" transform="matrix(0.926,0.377,-0.377,0.926,293.505,-159.607)" fill="rgb(3,3,3)"/><rect x="564.48" y="671.827" width="8" height="8" transform="matrix(0.926,0.377,-0.377,0.926,296.661,-164.427)" fill="rgb(3,3,3)"/><rect x="578.373" y="677.48" width="8" height="8" transform="matrix(0.926,0.377,-0.377,0.926,299.817,-169.246)" fill="rgb(3,3,3)"/><rect x="592.267" y="683.134" width="8" height="8" transform="matrix(0.926,0.377,-0.377,0.926,302.973,-174.066)" fill="rgb(3,3,3)"/><rect x="606.161" y="688.788" width="8" height="8" transform="matrix(0.926,0.377,-0.377,0.926,306.129,-178.886)" fill="rgb(3,3,3)"/><rect x="620.054" y="694.442" width="8" height="8" transform="matrix(0.926,0.377,-0.377,0.926,309.284,-183.706)" fill="rgb(3,3,3)"/><rect x="633.948" y="700.096" width="8" height="8" transform="matrix(0.926,0.377,-0.377,0.926,312.44,-188.526)" fill="rgb(3,3,3)"/><rect x="647.842" y="705.749" width="8" height="8" transform="matrix(0.926,0.377,-0.377,0.926,315.596,-193.346)" fill="rgb(3,3,3)"/><rect x="661.736" y="711.403" width="8" height="8" transform="matrix(0.926,0.377,-0.377,0.926,318.752,-198.165)" fill="rgb(3,3,3)"/><rect x="675.629" y="717.057" width="8" height="8" transform="matrix(0.926,0.377,-0.377,0.926,321.907,-202.985)" fill="rgb(3,3,3)"/><rect x="689.523" y="722.711" width="8" height="8" transform="matrix(0.926,0.377,-0.377,0.926,325.063,-207.805)" fill="rgb(3,3,3)"/><rect x="703.417" y="728.365" width="8" height="8" transform="matrix(0.926,0.377,-0.377,0.926,328.219,-212.625)" fill="rgb(3,3,3)"/><rect x="717.31" y="734.019" width="8" height="8" transform="matrix(0.926,0.377,-0.377,0.926,331.375,-217.445)" fill="rgb(3,3,3)"/><rect x="731.204" y="739.672" width="8" height="8" transform="matrix(0.926,0.377,-0.377,0.926,334.53,-222.265)" fill="rgb(3,3,3)"/></g><g><rect x="545.586" y="679.173" width="8" height="8" transform="matrix(0.926,0.377,-0.377,0.926,298.037,-156.763)" fill="rgb(3,3,3)"/><rect x="559.48" y="684.827" width="8" height="8" transform="matrix(0.926,0.377,-0.377,0.926,301.192,-161.583)" fill="rgb(3,3,3)"/><rect x="573.373" y="690.48" width="8" height="8" transform="matrix(0.926,0.377,-0.377,0.926,304.348,-166.403)" fill="rgb(3,3,3)"/><rect x="587.267" y="696.134" width="8" height="8" transform="matrix(0.926,0.377,-0.377,0.926,307.504,-171.223)" fill="rgb(3,3,3)"/><rect x="601.161" y="701.788" width="8" height="8" transform="matrix(0.926,0.377,-0.377,0.926,310.66,-176.043)" fill="rgb(3,3,3)"/><rect x="615.054" y="707.442" width="8" height="8" transform="matrix(0.926,0.377,-0.377,0.926,313.816,-180.863)" fill="rgb(3,3,3)"/><rect x="628.948" y="713.096" width="8" height="8" transform="matrix(0.926,0.377,-0.377,0.926,316.971,-185.682)" fill="rgb(3,3,3)"/><rect x="642.842" y="718.749" width="8" height="8" transform="matrix(0.926,0.377,-0.377,0.926,320.127,-190.502)" fill="rgb(3,3,3)"/><rect x="656.736" y="724.403" width="8" height="8" transform="matrix(0.926,0.377,-0.377,0.926,323.283,-195.322)" fill="rgb(3,3,3)"/><rect x="670.629" y="730.057" width="8" height="8" transform="matrix(0.926,0.377,-0.377,0.926,326.439,-200.142)" fill="rgb(3,3,3)"/><rect x="684.523" y="735.711" width="8" height="8" transform="matrix(0.926,0.377,-0.377,0.926,329.594,-204.962)" fill="rgb(3,3,3)"/><rect x="698.417" y="741.365" width="8" height="8" transform="matrix(0.926,0.377,-0.377,0.926,332.75,-209.781)" fill="rgb(3,3,3)"/><rect x="712.31" y="747.019" width="8" height="8" transform="matrix(0.926,0.377,-0.377,0.926,335.906,-214.601)" fill="rgb(3,3,3)"/><rect x="726.204" y="752.672" width="8" height="8" transform="matrix(0.926,0.377,-0.377,0.926,339.062,-219.421)" fill="rgb(3,3,3)"/></g><g><rect x="540.885" y="691.614" width="8" height="8" transform="matrix(0.926,0.377,-0.377,0.926,302.379,-154.074)" fill="rgb(3,3,3)"/><rect x="554.779" y="697.268" width="8" height="8" transform="matrix(0.926,0.377,-0.377,0.926,305.535,-158.894)" fill="rgb(3,3,3)"/><rect x="568.673" y="702.922" width="8" height="8" transform="matrix(0.926,0.377,-0.377,0.926,308.691,-163.714)" fill="rgb(3,3,3)"/><rect x="582.566" y="708.576" width="8" height="8" transform="matrix(0.926,0.377,-0.377,0.926,311.847,-168.533)" fill="rgb(3,3,3)"/><rect x="596.46" y="714.229" width="8" height="8" transform="matrix(0.926,0.377,-0.377,0.926,315.002,-173.353)" fill="rgb(3,3,3)"/><rect x="610.354" y="719.883" width="8" height="8" transform="matrix(0.926,0.377,-0.377,0.926,318.158,-178.173)" fill="rgb(3,3,3)"/><rect x="624.247" y="725.537" width="8" height="8" transform="matrix(0.926,0.377,-0.377,0.926,321.314,-182.993)" fill="rgb(3,3,3)"/><rect x="638.141" y="731.191" width="8" height="8" transform="matrix(0.926,0.377,-0.377,0.926,324.47,-187.813)" fill="rgb(3,3,3)"/><rect x="652.035" y="736.845" width="8" height="8" transform="matrix(0.926,0.377,-0.377,0.926,327.625,-192.633)" fill="rgb(3,3,3)"/><rect x="665.928" y="742.498" width="8" height="8" transform="matrix(0.926,0.377,-0.377,0.926,330.781,-197.452)" fill="rgb(3,3,3)"/><rect x="679.822" y="748.152" width="8" height="8" transform="matrix(0.926,0.377,-0.377,0.926,333.937,-202.272)" fill="rgb(3,3,3)"/><rect x="693.716" y="753.806" width="8" height="8" transform="matrix(0.926,0.377,-0.377,0.926,337.093,-207.092)" fill="rgb(3,3,3)"/><rect x="707.609" y="759.46" width="8" height="8" transform="matrix(0.926,0.377,-0.377,0.926,340.249,-211.912)" fill="rgb(3,3,3)"/><rect x="721.503" y="765.114" width="8" height="8" transform="matrix(0.926,0.377,-0.377,0.926,343.404,-216.732)" fill="rgb(3,3,3)"/></g><g><rect x="535.885" y="704.614" width="8" height="8" transform="matrix(0.926,0.377,-0.377,0.926,306.911,-151.231)" fill="rgb(3,3,3)"/><rect x="549.779" y="710.268" width="8" height="8" transform="matrix(0.926,0.377,-0.377,0.926,310.066,-156.05)" fill="rgb(3,3,3)"/><rect x="563.673" y="715.922" width="8" height="8" transform="matrix(0.926,0.377,-0.377,0.926,313.222,-160.87)" fill="rgb(3,3,3)"/><rect x="577.566" y="721.576" width="8" height="8" transform="matrix(0.926,0.377,-0.377,0.926,316.378,-165.69)" fill="rgb(3,3,3)"/><rect x="591.46" y="727.229" width="8" height="8" transform="matrix(0.926,0.377,-0.377,0.926,319.534,-170.51)" fill="rgb(3,3,3)"/><rect x="605.354" y="732.883" width="8" height="8" transform="matrix(0.926,0.377,-0.377,0.926,322.689,-175.33)" fill="rgb(3,3,3)"/><rect x="619.247" y="738.537" width="8" height="8" transform="matrix(0.926,0.377,-0.377,0.926,325.845,-180.15)" fill="rgb(3,3,3)"/><rect x="633.141" y="744.191" width="8" height="8" transform="matrix(0.926,0.377,-0.377,0.926,329.001,-184.969)" fill="rgb(3,3,3)"/><rect x="647.035" y="749.845" width="8" height="8" transform="matrix(0.926,0.377,-0.377,0.926,332.157,-189.789)" fill="rgb(3,3,3)"/><rect x="660.928" y="755.498" width="8" height="8" transform="matrix(0.926,0.377,-0.377,0.926,335.312,-194.609)" fill="rgb(3,3,3)"/><rect x="674.822" y="761.152" width="8" height="8" transform="matrix(0.926,0.377,-0.377,0.926,338.468,-199.429)" fill="rgb(3,3,3)"/><rect x="688.716" y="766.806" width="8" height="8" transform="matrix(0.926,0.377,-0.377,0.926,341.624,-204.249)" fill="rgb(3,3,3)"/><rect x="702.609" y="772.46" width="8" height="8" transform="matrix(0.926,0.377,-0.377,0.926,344.78,-209.068)" fill="rgb(3,3,3)"/><rect x="716.503" y="778.114" width="8" height="8" transform="matrix(0.926,0.377,-0.377,0.926,347.936,-213.888)" fill="rgb(3,3,3)"/></g><g><rect x="516.586" y="712.173" width="8" height="8" transform="matrix(0.926,0.377,-0.377,0.926,308.336,-143.399)" fill="rgb(3,3,3)"/><rect x="530.48" y="717.827" width="8" height="8" transform="matrix(0.926,0.377,-0.377,0.926,311.492,-148.219)" fill="rgb(3,3,3)"/><rect x="544.373" y="723.48" width="8" height="8" transform="matrix(0.926,0.377,-0.377,0.926,314.648,-153.038)" fill="rgb(3,3,3)"/><rect x="558.267" y="729.134" width="8" height="8" transform="matrix(0.926,0.377,-0.377,0.926,317.803,-157.858)" fill="rgb(3,3,3)"/><rect x="572.161" y="734.788" width="8" height="8" transform="matrix(0.926,0.377,-0.377,0.926,320.959,-162.678)" fill="rgb(3,3,3)"/><rect x="586.054" y="740.442" width="8" height="8" transform="matrix(0.926,0.377,-0.377,0.926,324.115,-167.498)" fill="rgb(3,3,3)"/><rect x="599.948" y="746.096" width="8" height="8" transform="matrix(0.926,0.377,-0.377,0.926,327.271,-172.318)" fill="rgb(3,3,3)"/><rect x="613.842" y="751.749" width="8" height="8" transform="matrix(0.926,0.377,-0.377,0.926,330.427,-177.138)" fill="rgb(3,3,3)"/><rect x="627.736" y="757.403" width="8" height="8" transform="matrix(0.926,0.377,-0.377,0.926,333.582,-181.957)" fill="rgb(3,3,3)"/><rect x="641.629" y="763.057" width="8" height="8" transform="matrix(0.926,0.377,-0.377,0.926,336.738,-186.777)" fill="rgb(3,3,3)"/><rect x="655.523" y="768.711" width="8" height="8" transform="matrix(0.926,0.377,-0.377,0.926,339.894,-191.597)" fill="rgb(3,3,3)"/><rect x="669.417" y="774.365" width="8" height="8" transform="matrix(0.926,0.377,-0.377,0.926,343.05,-196.417)" fill="rgb(3,3,3)"/><rect x="683.31" y="780.019" width="8" height="8" transform="matrix(0.926,0.377,-0.377,0.926,346.205,-201.237)" fill="rgb(3,3,3)"/><rect x="697.204" y="785.672" width="8" height="8" transform="matrix(0.926,0.377,-0.377,0.926,349.361,-206.057)" fill="rgb(3,3,3)"/></g><g><rect x="511.027" y="724.874" width="8" height="8" transform="matrix(0.926,0.377,-0.377,0.926,312.713,-140.367)" fill="rgb(3,3,3)"/><rect x="524.921" y="730.527" width="8" height="8" transform="matrix(0.926,0.377,-0.377,0.926,315.869,-145.187)" fill="rgb(3,3,3)"/><rect x="538.815" y="736.181" width="8" height="8" transform="matrix(0.926,0.377,-0.377,0.926,319.025,-150.007)" fill="rgb(3,3,3)"/><rect x="552.708" y="741.835" width="8" height="8" transform="matrix(0.926,0.377,-0.377,0.926,322.181,-154.826)" fill="rgb(3,3,3)"/><rect x="566.602" y="747.489" width="8" height="8" transform="matrix(0.926,0.377,-0.377,0.926,325.336,-159.646)" fill="rgb(3,3,3)"/><rect x="580.496" y="753.143" width="8" height="8" transform="matrix(0.926,0.377,-0.377,0.926,328.492,-164.466)" fill="rgb(3,3,3)"/><rect x="594.389" y="758.796" width="8" height="8" transform="matrix(0.926,0.377,-0.377,0.926,331.648,-169.286)" fill="rgb(3,3,3)"/><rect x="608.283" y="764.45" width="8" height="8" transform="matrix(0.926,0.377,-0.377,0.926,334.804,-174.106)" fill="rgb(3,3,3)"/><rect x="622.177" y="770.104" width="8" height="8" transform="matrix(0.926,0.377,-0.377,0.926,337.96,-178.925)" fill="rgb(3,3,3)"/><rect x="636.071" y="775.758" width="8" height="8" transform="matrix(0.926,0.377,-0.377,0.926,341.115,-183.745)" fill="rgb(3,3,3)"/><rect x="649.964" y="781.412" width="8" height="8" transform="matrix(0.926,0.377,-0.377,0.926,344.271,-188.565)" fill="rgb(3,3,3)"/><rect x="663.858" y="787.066" width="8" height="8" transform="matrix(0.926,0.377,-0.377,0.926,347.427,-193.385)" fill="rgb(3,3,3)"/><rect x="677.752" y="792.719" width="8" height="8" transform="matrix(0.926,0.377,-0.377,0.926,350.583,-198.205)" fill="rgb(3,3,3)"/><rect x="691.645" y="798.373" width="8" height="8" transform="matrix(0.926,0.377,-0.377,0.926,353.738,-203.025)" fill="rgb(3,3,3)"/></g><g><rect x="506.027" y="737.874" width="8" height="8" transform="matrix(0.926,0.377,-0.377,0.926,317.245,-137.523)" fill="rgb(3,3,3)"/><rect x="519.921" y="743.527" width="8" height="8" transform="matrix(0.926,0.377,-0.377,0.926,320.4,-142.343)" fill="rgb(3,3,3)"/><rect x="533.815" y="749.181" width="8" height="8" transform="matrix(0.926,0.377,-0.377,0.926,323.556,-147.163)" fill="rgb(3,3,3)"/><rect x="547.708" y="754.835" width="8" height="8" transform="matrix(0.926,0.377,-0.377,0.926,326.712,-151.983)" fill="rgb(3,3,3)"/><rect x="561.602" y="760.489" width="8" height="8" transform="matrix(0.926,0.377,-0.377,0.926,329.868,-156.803)" fill="rgb(3,3,3)"/><rect x="575.496" y="766.143" width="8" height="8" transform="matrix(0.926,0.377,-0.377,0.926,333.023,-161.623)" fill="rgb(3,3,3)"/><rect x="589.389" y="771.796" width="8" height="8" transform="matrix(0.926,0.377,-0.377,0.926,336.179,-166.442)" fill="rgb(3,3,3)"/><rect x="603.283" y="777.45" width="8" height="8" transform="matrix(0.926,0.377,-0.377,0.926,339.335,-171.262)" fill="rgb(3,3,3)"/><rect x="617.177" y="783.104" width="8" height="8" transform="matrix(0.926,0.377,-0.377,0.926,342.491,-176.082)" fill="rgb(3,3,3)"/><rect x="631.071" y="788.758" width="8" height="8" transform="matrix(0.926,0.377,-0.377,0.926,345.647,-180.902)" fill="rgb(3,3,3)"/><rect x="644.964" y="794.412" width="8" height="8" transform="matrix(0.926,0.377,-0.377,0.926,348.802,-185.722)" fill="rgb(3,3,3)"/><rect x="658.858" y="800.066" width="8" height="8" transform="matrix(0.926,0.377,-0.377,0.926,351.958,-190.542)" fill="rgb(3,3,3)"/><rect x="672.752" y="805.719" width="8" height="8" transform="matrix(0.926,0.377,-0.377,0.926,355.114,-195.361)" fill="rgb(3,3,3)"/><rect x="686.645" y="811.373" width="8" height="8" transform="matrix(0.926,0.377,-0.377,0.926,358.27,-200.181)" fill="rgb(3,3,3)"/></g><g><rect x="501.327" y="750.315" width="8" height="8" transform="matrix(0.926,0.377,-0.377,0.926,321.587,-134.834)" fill="rgb(3,3,3)"/><rect x="515.22" y="755.969" width="8" height="8" transform="matrix(0.926,0.377,-0.377,0.926,324.743,-139.654)" fill="rgb(3,3,3)"/><rect x="529.114" y="761.623" width="8" height="8" transform="matrix(0.926,0.377,-0.377,0.926,327.899,-144.474)" fill="rgb(3,3,3)"/><rect x="543.008" y="767.276" width="8" height="8" transform="matrix(0.926,0.377,-0.377,0.926,331.055,-149.293)" fill="rgb(3,3,3)"/><rect x="556.901" y="772.93" width="8" height="8" transform="matrix(0.926,0.377,-0.377,0.926,334.21,-154.113)" fill="rgb(3,3,3)"/><rect x="570.795" y="778.584" width="8" height="8" transform="matrix(0.926,0.377,-0.377,0.926,337.366,-158.933)" fill="rgb(3,3,3)"/><rect x="584.689" y="784.238" width="8" height="8" transform="matrix(0.926,0.377,-0.377,0.926,340.522,-163.753)" fill="rgb(3,3,3)"/><rect x="598.582" y="789.892" width="8" height="8" transform="matrix(0.926,0.377,-0.377,0.926,343.678,-168.573)" fill="rgb(3,3,3)"/><rect x="612.476" y="795.545" width="8" height="8" transform="matrix(0.926,0.377,-0.377,0.926,346.833,-173.393)" fill="rgb(3,3,3)"/><rect x="626.37" y="801.199" width="8" height="8" transform="matrix(0.926,0.377,-0.377,0.926,349.989,-178.212)" fill="rgb(3,3,3)"/><rect x="640.263" y="806.853" width="8" height="8" transform="matrix(0.926,0.377,-0.377,0.926,353.145,-183.032)" fill="rgb(3,3,3)"/><rect x="654.157" y="812.507" width="8" height="8" transform="matrix(0.926,0.377,-0.377,0.926,356.301,-187.852)" fill="rgb(3,3,3)"/><rect x="668.051" y="818.161" width="8" height="8" transform="matrix(0.926,0.377,-0.377,0.926,359.456,-192.672)" fill="rgb(3,3,3)"/><rect x="681.944" y="823.814" width="8" height="8" transform="matrix(0.926,0.377,-0.377,0.926,362.612,-197.492)" fill="rgb(3,3,3)"/></g><g><rect x="482.327" y="757.315" width="8" height="8" transform="matrix(0.926,0.377,-0.377,0.926,322.824,-127.156)" fill="rgb(3,3,3)"/><rect x="496.22" y="762.969" width="8" height="8" transform="matrix(0.926,0.377,-0.377,0.926,325.98,-131.976)" fill="rgb(3,3,3)"/><rect x="510.114" y="768.623" width="8" height="8" transform="matrix(0.926,0.377,-0.377,0.926,329.136,-136.796)" fill="rgb(3,3,3)"/><rect x="524.008" y="774.276" width="8" height="8" transform="matrix(0.926,0.377,-0.377,0.926,332.292,-141.616)" fill="rgb(3,3,3)"/><rect x="537.901" y="779.93" width="8" height="8" transform="matrix(0.926,0.377,-0.377,0.926,335.447,-146.436)" fill="rgb(3,3,3)"/><rect x="551.795" y="785.584" width="8" height="8" transform="matrix(0.926,0.377,-0.377,0.926,338.603,-151.255)" fill="rgb(3,3,3)"/><rect x="565.689" y="791.238" width="8" height="8" transform="matrix(0.926,0.377,-0.377,0.926,341.759,-156.075)" fill="rgb(3,3,3)"/><rect x="579.582" y="796.892" width="8" height="8" transform="matrix(0.926,0.377,-0.377,0.926,344.915,-160.895)" fill="rgb(3,3,3)"/><rect x="593.476" y="802.545" width="8" height="8" transform="matrix(0.926,0.377,-0.377,0.926,348.071,-165.715)" fill="rgb(3,3,3)"/><rect x="607.37" y="808.199" width="8" height="8" transform="matrix(0.926,0.377,-0.377,0.926,351.226,-170.535)" fill="rgb(3,3,3)"/><rect x="621.263" y="813.853" width="8" height="8" transform="matrix(0.926,0.377,-0.377,0.926,354.382,-175.354)" fill="rgb(3,3,3)"/><rect x="635.157" y="819.507" width="8" height="8" transform="matrix(0.926,0.377,-0.377,0.926,357.538,-180.174)" fill="rgb(3,3,3)"/><rect x="649.051" y="825.161" width="8" height="8" transform="matrix(0.926,0.377,-0.377,0.926,360.694,-184.994)" fill="rgb(3,3,3)"/><rect x="662.944" y="830.814" width="8" height="8" transform="matrix(0.926,0.377,-0.377,0.926,363.849,-189.814)" fill="rgb(3,3,3)"/></g><g><rect x="477.327" y="770.315" width="8" height="8" transform="matrix(0.926,0.377,-0.377,0.926,327.356,-124.313)" fill="rgb(3,3,3)"/><rect x="491.22" y="775.969" width="8" height="8" transform="matrix(0.926,0.377,-0.377,0.926,330.511,-129.133)" fill="rgb(3,3,3)"/><rect x="505.114" y="781.623" width="8" height="8" transform="matrix(0.926,0.377,-0.377,0.926,333.667,-133.952)" fill="rgb(3,3,3)"/><rect x="519.008" y="787.276" width="8" height="8" transform="matrix(0.926,0.377,-0.377,0.926,336.823,-138.772)" fill="rgb(3,3,3)"/><rect x="532.901" y="792.93" width="8" height="8" transform="matrix(0.926,0.377,-0.377,0.926,339.979,-143.592)" fill="rgb(3,3,3)"/><rect x="546.795" y="798.584" width="8" height="8" transform="matrix(0.926,0.377,-0.377,0.926,343.134,-148.412)" fill="rgb(3,3,3)"/><rect x="560.689" y="804.238" width="8" height="8" transform="matrix(0.926,0.377,-0.377,0.926,346.29,-153.232)" fill="rgb(3,3,3)"/><rect x="574.582" y="809.892" width="8" height="8" transform="matrix(0.926,0.377,-0.377,0.926,349.446,-158.052)" fill="rgb(3,3,3)"/><rect x="588.476" y="815.545" width="8" height="8" transform="matrix(0.926,0.377,-0.377,0.926,352.602,-162.871)" fill="rgb(3,3,3)"/><rect x="602.37" y="821.199" width="8" height="8" transform="matrix(0.926,0.377,-0.377,0.926,355.757,-167.691)" fill="rgb(3,3,3)"/><rect x="616.263" y="826.853" width="8" height="8" transform="matrix(0.926,0.377,-0.377,0.926,358.913,-172.511)" fill="rgb(3,3,3)"/><rect x="630.157" y="832.507" width="8" height="8" transform="matrix(0.926,0.377,-0.377,0.926,362.069,-177.331)" fill="rgb(3,3,3)"/><rect x="644.051" y="838.161" width="8" height="8" transform="matrix(0.926,0.377,-0.377,0.926,365.225,-182.151)" fill="rgb(3,3,3)"/><rect x="657.944" y="843.814" width="8" height="8" transform="matrix(0.926,0.377,-0.377,0.926,368.381,-186.971)" fill="rgb(3,3,3)"/></g><g><rect x="472.398" y="782.945" width="8" height="8" transform="matrix(0.926,0.377,-0.377,0.926,331.753,-121.524)" fill="rgb(3,3,3)"/><rect x="486.291" y="788.598" width="8" height="8" transform="matrix(0.926,0.377,-0.377,0.926,334.908,-126.343)" fill="rgb(3,3,3)"/><rect x="500.185" y="794.252" width="8" height="8" transform="matrix(0.926,0.377,-0.377,0.926,338.064,-131.163)" fill="rgb(3,3,3)"/><rect x="514.079" y="799.906" width="8" height="8" transform="matrix(0.926,0.377,-0.377,0.926,341.22,-135.983)" fill="rgb(3,3,3)"/><rect x="527.972" y="805.56" width="8" height="8" transform="matrix(0.926,0.377,-0.377,0.926,344.376,-140.803)" fill="rgb(3,3,3)"/><rect x="541.866" y="811.214" width="8" height="8" transform="matrix(0.926,0.377,-0.377,0.926,347.531,-145.623)" fill="rgb(3,3,3)"/><rect x="555.76" y="816.868" width="8" height="8" transform="matrix(0.926,0.377,-0.377,0.926,350.687,-150.442)" fill="rgb(3,3,3)"/><rect x="569.653" y="822.521" width="8" height="8" transform="matrix(0.926,0.377,-0.377,0.926,353.843,-155.262)" fill="rgb(3,3,3)"/><rect x="583.547" y="828.175" width="8" height="8" transform="matrix(0.926,0.377,-0.377,0.926,356.999,-160.082)" fill="rgb(3,3,3)"/><rect x="597.441" y="833.829" width="8" height="8" transform="matrix(0.926,0.377,-0.377,0.926,360.154,-164.902)" fill="rgb(3,3,3)"/><rect x="611.334" y="839.483" width="8" height="8" transform="matrix(0.926,0.377,-0.377,0.926,363.31,-169.722)" fill="rgb(3,3,3)"/><rect x="625.228" y="845.137" width="8" height="8" transform="matrix(0.926,0.377,-0.377,0.926,366.466,-174.542)" fill="rgb(3,3,3)"/><rect x="639.122" y="850.79" width="8" height="8" transform="matrix(0.926,0.377,-0.377,0.926,369.622,-179.361)" fill="rgb(3,3,3)"/><rect x="653.016" y="856.444" width="8" height="8" transform="matrix(0.926,0.377,-0.377,0.926,372.777,-184.181)" fill="rgb(3,3,3)"/></g><g><rect x="467.214" y="795.95" width="8" height="8" transform="matrix(0.926,0.377,-0.377,0.926,336.272,-118.611)" fill="rgb(3,3,3)"/><rect x="481.108" y="801.604" width="8" height="8" transform="matrix(0.926,0.377,-0.377,0.926,339.428,-123.43)" fill="rgb(3,3,3)"/><rect x="495.002" y="807.257" width="8" height="8" transform="matrix(0.926,0.377,-0.377,0.926,342.584,-128.25)" fill="rgb(3,3,3)"/><rect x="508.895" y="812.911" width="8" height="8" transform="matrix(0.926,0.377,-0.377,0.926,345.739,-133.07)" fill="rgb(3,3,3)"/><rect x="522.789" y="818.565" width="8" height="8" transform="matrix(0.926,0.377,-0.377,0.926,348.895,-137.89)" fill="rgb(3,3,3)"/><rect x="536.683" y="824.219" width="8" height="8" transform="matrix(0.926,0.377,-0.377,0.926,352.051,-142.71)" fill="rgb(3,3,3)"/><rect x="550.576" y="829.873" width="8" height="8" transform="matrix(0.926,0.377,-0.377,0.926,355.207,-147.53)" fill="rgb(3,3,3)"/><rect x="564.47" y="835.526" width="8" height="8" transform="matrix(0.926,0.377,-0.377,0.926,358.362,-152.349)" fill="rgb(3,3,3)"/><rect x="578.364" y="841.18" width="8" height="8" transform="matrix(0.926,0.377,-0.377,0.926,361.518,-157.169)" fill="rgb(3,3,3)"/><rect x="592.257" y="846.834" width="8" height="8" transform="matrix(0.926,0.377,-0.377,0.926,364.674,-161.989)" fill="rgb(3,3,3)"/><rect x="606.151" y="852.488" width="8" height="8" transform="matrix(0.926,0.377,-0.377,0.926,367.83,-166.809)" fill="rgb(3,3,3)"/><rect x="620.045" y="858.142" width="8" height="8" transform="matrix(0.926,0.377,-0.377,0.926,370.985,-171.629)" fill="rgb(3,3,3)"/><rect x="633.938" y="863.795" width="8" height="8" transform="matrix(0.926,0.377,-0.377,0.926,374.141,-176.448)" fill="rgb(3,3,3)"/><rect x="647.832" y="869.449" width="8" height="8" transform="matrix(0.926,0.377,-0.377,0.926,377.297,-181.268)" fill="rgb(3,3,3)"/></g></g><clipPath id="_clipPath_w7VtOI9IjpUvmwtJuWUo4762BQVPx1sL"><path d=" M 462.543 656.956 C 486.543 633.846 499.173 609.115 508.543 573.828 L 543.935 590.828 C 513.835 673.378 449.335 698.878 433.935 799.828 L 406.543 787.246 C 415.543 723.146 438.543 691.796 462.543 656.956 Z " fill="rgb(255,255,255)"/></clipPath><g clip-path="url(#_clipPath_w7VtOI9IjpUvmwtJuWUo4762BQVPx1sL)"><g><rect x="509.499" y="574.314" width="8" height="8" transform="matrix(0.891,0.455,-0.455,0.891,319.197,-170.268)" fill="rgb(3,3,3)"/><rect x="517.534" y="578.368" width="8" height="8" transform="matrix(0.891,0.455,-0.455,0.891,321.92,-173.479)" fill="rgb(3,3,3)"/><rect x="526.456" y="582.884" width="8" height="8" transform="matrix(0.891,0.455,-0.455,0.891,324.95,-177.043)" fill="rgb(3,3,3)"/><rect x="538.041" y="588.784" width="8" height="8" transform="matrix(0.891,0.455,-0.455,0.891,328.9,-181.666)" fill="rgb(3,3,3)"/></g><g><rect x="504.389" y="586.31" width="8" height="8" transform="matrix(0.891,0.455,-0.455,0.891,324.093,-166.632)" fill="rgb(3,3,3)"/><rect x="512.425" y="590.364" width="8" height="8" transform="matrix(0.891,0.455,-0.455,0.891,326.816,-169.843)" fill="rgb(3,3,3)"/><rect x="521.347" y="594.88" width="8" height="8" transform="matrix(0.891,0.455,-0.455,0.891,329.846,-173.407)" fill="rgb(3,3,3)"/><rect x="532.932" y="600.779" width="8" height="8" transform="matrix(0.891,0.455,-0.455,0.891,333.797,-178.03)" fill="rgb(3,3,3)"/></g><g><rect x="498.393" y="597.844" width="8" height="8" transform="matrix(0.891,0.455,-0.455,0.891,328.683,-162.643)" fill="rgb(3,3,3)"/><rect x="506.428" y="601.899" width="8" height="8" transform="matrix(0.891,0.455,-0.455,0.891,331.406,-165.853)" fill="rgb(3,3,3)"/><rect x="515.351" y="606.414" width="8" height="8" transform="matrix(0.891,0.455,-0.455,0.891,334.436,-169.417)" fill="rgb(3,3,3)"/><rect x="526.935" y="612.314" width="8" height="8" transform="matrix(0.891,0.455,-0.455,0.891,338.387,-174.041)" fill="rgb(3,3,3)"/></g><g><rect x="493.284" y="609.84" width="8" height="8" transform="matrix(0.891,0.455,-0.455,0.891,333.58,-159.007)" fill="rgb(3,3,3)"/><rect x="501.319" y="613.894" width="8" height="8" transform="matrix(0.891,0.455,-0.455,0.891,336.303,-162.217)" fill="rgb(3,3,3)"/><rect x="510.242" y="618.41" width="8" height="8" transform="matrix(0.891,0.455,-0.455,0.891,339.333,-165.781)" fill="rgb(3,3,3)"/><rect x="521.826" y="624.309" width="8" height="8" transform="matrix(0.891,0.455,-0.455,0.891,343.283,-170.405)" fill="rgb(3,3,3)"/></g><g><rect x="486.4" y="620.913" width="8" height="8" transform="matrix(0.891,0.455,-0.455,0.891,337.863,-154.664)" fill="rgb(3,3,3)"/><rect x="494.436" y="624.968" width="8" height="8" transform="matrix(0.891,0.455,-0.455,0.891,340.586,-157.875)" fill="rgb(3,3,3)"/><rect x="503.358" y="629.483" width="8" height="8" transform="matrix(0.891,0.455,-0.455,0.891,343.616,-161.439)" fill="rgb(3,3,3)"/><rect x="514.943" y="635.383" width="8" height="8" transform="matrix(0.891,0.455,-0.455,0.891,347.566,-166.062)" fill="rgb(3,3,3)"/></g><g><rect x="479.517" y="631.986" width="8" height="8" transform="matrix(0.891,0.455,-0.455,0.891,342.146,-150.322)" fill="rgb(3,3,3)"/><rect x="487.552" y="636.041" width="8" height="8" transform="matrix(0.891,0.455,-0.455,0.891,344.869,-153.533)" fill="rgb(3,3,3)"/><rect x="496.474" y="640.556" width="8" height="8" transform="matrix(0.891,0.455,-0.455,0.891,347.899,-157.097)" fill="rgb(3,3,3)"/><rect x="508.059" y="646.456" width="8" height="8" transform="matrix(0.891,0.455,-0.455,0.891,351.849,-161.72)" fill="rgb(3,3,3)"/></g><g><rect x="470.858" y="642.137" width="8" height="8" transform="matrix(0.891,0.455,-0.455,0.891,345.815,-145.274)" fill="rgb(3,3,3)"/><rect x="478.894" y="646.191" width="8" height="8" transform="matrix(0.891,0.455,-0.455,0.891,348.538,-148.485)" fill="rgb(3,3,3)"/><rect x="487.816" y="650.707" width="8" height="8" transform="matrix(0.891,0.455,-0.455,0.891,351.568,-152.049)" fill="rgb(3,3,3)"/><rect x="499.401" y="656.606" width="8" height="8" transform="matrix(0.891,0.455,-0.455,0.891,355.519,-156.672)" fill="rgb(3,3,3)"/></g><g><rect x="462.2" y="652.288" width="8" height="8" transform="matrix(0.891,0.455,-0.455,0.891,349.484,-140.226)" fill="rgb(3,3,3)"/><rect x="470.236" y="656.342" width="8" height="8" transform="matrix(0.891,0.455,-0.455,0.891,352.207,-143.437)" fill="rgb(3,3,3)"/><rect x="479.158" y="660.858" width="8" height="8" transform="matrix(0.891,0.455,-0.455,0.891,355.237,-147.001)" fill="rgb(3,3,3)"/><rect x="490.742" y="666.757" width="8" height="8" transform="matrix(0.891,0.455,-0.455,0.891,359.188,-151.624)" fill="rgb(3,3,3)"/></g><g><rect x="454.429" y="662.899" width="8" height="8" transform="matrix(0.891,0.455,-0.455,0.891,353.46,-135.53)" fill="rgb(3,3,3)"/><rect x="462.465" y="666.954" width="8" height="8" transform="matrix(0.891,0.455,-0.455,0.891,356.184,-138.741)" fill="rgb(3,3,3)"/><rect x="471.387" y="671.47" width="8" height="8" transform="matrix(0.891,0.455,-0.455,0.891,359.213,-142.305)" fill="rgb(3,3,3)"/><rect x="482.972" y="677.369" width="8" height="8" transform="matrix(0.891,0.455,-0.455,0.891,363.164,-146.928)" fill="rgb(3,3,3)"/></g><g><rect x="446.658" y="673.511" width="8" height="8" transform="matrix(0.891,0.455,-0.455,0.891,357.437,-130.835)" fill="rgb(3,3,3)"/><rect x="454.694" y="677.566" width="8" height="8" transform="matrix(0.891,0.455,-0.455,0.891,360.16,-134.046)" fill="rgb(3,3,3)"/><rect x="463.616" y="682.082" width="8" height="8" transform="matrix(0.891,0.455,-0.455,0.891,363.19,-137.61)" fill="rgb(3,3,3)"/><rect x="475.201" y="687.981" width="8" height="8" transform="matrix(0.891,0.455,-0.455,0.891,367.14,-142.233)" fill="rgb(3,3,3)"/></g><g><rect x="438.887" y="684.123" width="8" height="8" transform="matrix(0.891,0.455,-0.455,0.891,361.413,-126.14)" fill="rgb(3,3,3)"/><rect x="446.923" y="688.178" width="8" height="8" transform="matrix(0.891,0.455,-0.455,0.891,364.136,-129.351)" fill="rgb(3,3,3)"/><rect x="455.845" y="692.693" width="8" height="8" transform="matrix(0.891,0.455,-0.455,0.891,367.166,-132.915)" fill="rgb(3,3,3)"/><rect x="467.43" y="698.593" width="8" height="8" transform="matrix(0.891,0.455,-0.455,0.891,371.116,-137.538)" fill="rgb(3,3,3)"/></g><g><rect x="432.004" y="695.196" width="8" height="8" transform="matrix(0.891,0.455,-0.455,0.891,365.696,-121.798)" fill="rgb(3,3,3)"/><rect x="440.039" y="699.251" width="8" height="8" transform="matrix(0.891,0.455,-0.455,0.891,368.419,-125.009)" fill="rgb(3,3,3)"/><rect x="448.962" y="703.767" width="8" height="8" transform="matrix(0.891,0.455,-0.455,0.891,371.449,-128.573)" fill="rgb(3,3,3)"/><rect x="460.546" y="709.666" width="8" height="8" transform="matrix(0.891,0.455,-0.455,0.891,375.399,-133.196)" fill="rgb(3,3,3)"/></g><g><rect x="425.12" y="706.27" width="8" height="8" transform="matrix(0.891,0.455,-0.455,0.891,369.979,-117.456)" fill="rgb(3,3,3)"/><rect x="433.155" y="710.324" width="8" height="8" transform="matrix(0.891,0.455,-0.455,0.891,372.702,-120.667)" fill="rgb(3,3,3)"/><rect x="442.078" y="714.84" width="8" height="8" transform="matrix(0.891,0.455,-0.455,0.891,375.732,-124.231)" fill="rgb(3,3,3)"/><rect x="453.662" y="720.739" width="8" height="8" transform="matrix(0.891,0.455,-0.455,0.891,379.682,-128.854)" fill="rgb(3,3,3)"/></g><g><rect x="419.124" y="717.804" width="8" height="8" transform="matrix(0.891,0.455,-0.455,0.891,374.568,-113.467)" fill="rgb(3,3,3)"/><rect x="427.159" y="721.859" width="8" height="8" transform="matrix(0.891,0.455,-0.455,0.891,377.291,-116.678)" fill="rgb(3,3,3)"/><rect x="436.082" y="726.374" width="8" height="8" transform="matrix(0.891,0.455,-0.455,0.891,380.321,-120.241)" fill="rgb(3,3,3)"/><rect x="447.666" y="732.274" width="8" height="8" transform="matrix(0.891,0.455,-0.455,0.891,384.272,-124.865)" fill="rgb(3,3,3)"/></g><g><rect x="414.015" y="729.8" width="8" height="8" transform="matrix(0.891,0.455,-0.455,0.891,379.465,-109.831)" fill="rgb(3,3,3)"/><rect x="422.05" y="733.854" width="8" height="8" transform="matrix(0.891,0.455,-0.455,0.891,382.188,-113.041)" fill="rgb(3,3,3)"/><rect x="430.972" y="738.37" width="8" height="8" transform="matrix(0.891,0.455,-0.455,0.891,385.218,-116.605)" fill="rgb(3,3,3)"/><rect x="442.557" y="744.269" width="8" height="8" transform="matrix(0.891,0.455,-0.455,0.891,389.169,-121.229)" fill="rgb(3,3,3)"/></g><g><rect x="409.793" y="742.257" width="8" height="8" transform="matrix(0.891,0.455,-0.455,0.891,384.669,-106.548)" fill="rgb(3,3,3)"/><rect x="417.828" y="746.311" width="8" height="8" transform="matrix(0.891,0.455,-0.455,0.891,387.392,-109.759)" fill="rgb(3,3,3)"/><rect x="426.751" y="750.827" width="8" height="8" transform="matrix(0.891,0.455,-0.455,0.891,390.422,-113.322)" fill="rgb(3,3,3)"/><rect x="438.335" y="756.726" width="8" height="8" transform="matrix(0.891,0.455,-0.455,0.891,394.372,-117.946)" fill="rgb(3,3,3)"/></g><g><rect x="406.458" y="755.175" width="8" height="8" transform="matrix(0.891,0.455,-0.455,0.891,390.179,-103.618)" fill="rgb(3,3,3)"/><rect x="414.493" y="759.229" width="8" height="8" transform="matrix(0.891,0.455,-0.455,0.891,392.902,-106.829)" fill="rgb(3,3,3)"/><rect x="423.416" y="763.745" width="8" height="8" transform="matrix(0.891,0.455,-0.455,0.891,395.932,-110.393)" fill="rgb(3,3,3)"/><rect x="435" y="769.645" width="8" height="8" transform="matrix(0.891,0.455,-0.455,0.891,399.882,-115.016)" fill="rgb(3,3,3)"/></g><g><rect x="403.124" y="768.093" width="8" height="8" transform="matrix(0.891,0.455,-0.455,0.891,395.689,-100.688)" fill="rgb(3,3,3)"/><rect x="411.159" y="772.148" width="8" height="8" transform="matrix(0.891,0.455,-0.455,0.891,398.412,-103.899)" fill="rgb(3,3,3)"/><rect x="420.081" y="776.663" width="8" height="8" transform="matrix(0.891,0.455,-0.455,0.891,401.442,-107.463)" fill="rgb(3,3,3)"/><rect x="431.666" y="782.563" width="8" height="8" transform="matrix(0.891,0.455,-0.455,0.891,405.393,-112.086)" fill="rgb(3,3,3)"/></g><g><rect x="399.789" y="781.011" width="8" height="8" transform="matrix(0.891,0.455,-0.455,0.891,401.2,-97.758)" fill="rgb(3,3,3)"/><rect x="407.824" y="785.066" width="8" height="8" transform="matrix(0.891,0.455,-0.455,0.891,403.923,-100.969)" fill="rgb(3,3,3)"/><rect x="416.747" y="789.582" width="8" height="8" transform="matrix(0.891,0.455,-0.455,0.891,406.953,-104.533)" fill="rgb(3,3,3)"/><rect x="428.331" y="795.481" width="8" height="8" transform="matrix(0.891,0.455,-0.455,0.891,410.903,-109.156)" fill="rgb(3,3,3)"/></g></g><path d=" M 798.116 657.838 L 840.923 674.678 L 777.543 833.858 L 740.543 832.246 L 798.116 657.838 Z " fill="none"/><linearGradient id="_lgradient_9" x1="0.2381392590467959" y1="0.4006449636521596" x2="0.489462918438654" y2="0.5581848393594805" gradientTransform="matrix(89.925,0,0,174.597,750.714,664.935)" gradientUnits="userSpaceOnUse"><stop offset="0%" stop-opacity="1" style="stop-color:rgb(9,9,9)"/><stop offset="98.69565217391305%" stop-opacity="1" style="stop-color:rgb(47,47,47)"/></linearGradient><path d=" M 833.195 671.89 L 840.639 674.819 L 837.711 682.264 L 830.266 679.335 L 833.195 671.89 L 833.195 671.89 L 833.195 671.89 L 833.195 671.89 L 833.195 671.89 L 833.195 671.89 L 833.195 671.89 L 833.195 671.89 L 833.195 671.89 L 833.195 671.89 L 833.195 671.89 L 833.195 671.89 L 833.195 671.89 L 833.195 671.89 L 833.195 671.89 L 833.195 671.89 L 833.195 671.89 L 833.195 671.89 L 833.195 671.89 L 833.195 671.89 L 833.195 671.89 L 833.195 671.89 L 833.195 671.89 L 833.195 671.89 L 833.195 671.89 L 833.195 671.89 L 833.195 671.89 L 833.195 671.89 L 833.195 671.89 L 833.195 671.89 L 833.195 671.89 L 833.195 671.89 L 833.195 671.89 L 833.195 671.89 L 833.195 671.89 L 833.195 671.89 L 833.195 671.89 L 833.195 671.89 L 833.195 671.89 L 833.195 671.89 L 833.195 671.89 Z  M 824.82 668.596 L 832.264 671.524 L 829.335 678.969 L 821.891 676.04 L 824.82 668.596 L 824.82 668.596 L 824.82 668.596 L 824.82 668.596 L 824.82 668.596 L 824.82 668.596 L 824.82 668.596 L 824.82 668.596 L 824.82 668.596 L 824.82 668.596 L 824.82 668.596 L 824.82 668.596 L 824.82 668.596 L 824.82 668.596 L 824.82 668.596 L 824.82 668.596 L 824.82 668.596 L 824.82 668.596 L 824.82 668.596 L 824.82 668.596 L 824.82 668.596 L 824.82 668.596 L 824.82 668.596 L 824.82 668.596 L 824.82 668.596 L 824.82 668.596 L 824.82 668.596 L 824.82 668.596 L 824.82 668.596 L 824.82 668.596 L 824.82 668.596 L 824.82 668.596 L 824.82 668.596 L 824.82 668.596 L 824.82 668.596 L 824.82 668.596 L 824.82 668.596 L 824.82 668.596 L 824.82 668.596 L 824.82 668.596 L 824.82 668.596 Z  M 815.514 664.935 L 822.958 667.863 L 820.03 675.308 L 812.585 672.379 L 815.514 664.935 L 815.514 664.935 L 815.514 664.935 L 815.514 664.935 L 815.514 664.935 L 815.514 664.935 L 815.514 664.935 L 815.514 664.935 L 815.514 664.935 L 815.514 664.935 L 815.514 664.935 L 815.514 664.935 L 815.514 664.935 L 815.514 664.935 L 815.514 664.935 L 815.514 664.935 L 815.514 664.935 L 815.514 664.935 L 815.514 664.935 L 815.514 664.935 L 815.514 664.935 L 815.514 664.935 L 815.514 664.935 L 815.514 664.935 L 815.514 664.935 L 815.514 664.935 L 815.514 664.935 L 815.514 664.935 L 815.514 664.935 L 815.514 664.935 L 815.514 664.935 L 815.514 664.935 L 815.514 664.935 L 815.514 664.935 L 815.514 664.935 L 815.514 664.935 L 815.514 664.935 L 815.514 664.935 L 815.514 664.935 L 815.514 664.935 Z  M 828.435 683.988 L 835.88 686.917 L 832.951 694.361 L 825.507 691.433 L 828.435 683.988 L 828.435 683.988 L 828.435 683.988 L 828.435 683.988 L 828.435 683.988 L 828.435 683.988 L 828.435 683.988 L 828.435 683.988 L 828.435 683.988 L 828.435 683.988 L 828.435 683.988 L 828.435 683.988 L 828.435 683.988 L 828.435 683.988 L 828.435 683.988 L 828.435 683.988 L 828.435 683.988 L 828.435 683.988 L 828.435 683.988 L 828.435 683.988 L 828.435 683.988 L 828.435 683.988 L 828.435 683.988 L 828.435 683.988 L 828.435 683.988 L 828.435 683.988 L 828.435 683.988 L 828.435 683.988 L 828.435 683.988 L 828.435 683.988 L 828.435 683.988 L 828.435 683.988 L 828.435 683.988 L 828.435 683.988 L 828.435 683.988 L 828.435 683.988 L 828.435 683.988 L 828.435 683.988 L 828.435 683.988 Z  M 820.06 680.693 L 827.505 683.622 L 824.576 691.066 L 817.131 688.138 L 820.06 680.693 L 820.06 680.693 L 820.06 680.693 L 820.06 680.693 L 820.06 680.693 L 820.06 680.693 L 820.06 680.693 L 820.06 680.693 L 820.06 680.693 L 820.06 680.693 L 820.06 680.693 L 820.06 680.693 L 820.06 680.693 L 820.06 680.693 L 820.06 680.693 L 820.06 680.693 L 820.06 680.693 L 820.06 680.693 L 820.06 680.693 L 820.06 680.693 L 820.06 680.693 L 820.06 680.693 L 820.06 680.693 L 820.06 680.693 L 820.06 680.693 L 820.06 680.693 L 820.06 680.693 L 820.06 680.693 L 820.06 680.693 L 820.06 680.693 L 820.06 680.693 L 820.06 680.693 L 820.06 680.693 L 820.06 680.693 L 820.06 680.693 L 820.06 680.693 L 820.06 680.693 L 820.06 680.693 Z  M 810.755 677.032 L 818.199 679.961 L 815.27 687.405 L 807.826 684.477 L 810.755 677.032 L 810.755 677.032 L 810.755 677.032 L 810.755 677.032 L 810.755 677.032 L 810.755 677.032 L 810.755 677.032 L 810.755 677.032 L 810.755 677.032 L 810.755 677.032 L 810.755 677.032 L 810.755 677.032 L 810.755 677.032 L 810.755 677.032 L 810.755 677.032 L 810.755 677.032 L 810.755 677.032 L 810.755 677.032 L 810.755 677.032 L 810.755 677.032 L 810.755 677.032 L 810.755 677.032 L 810.755 677.032 L 810.755 677.032 L 810.755 677.032 L 810.755 677.032 L 810.755 677.032 L 810.755 677.032 L 810.755 677.032 L 810.755 677.032 L 810.755 677.032 L 810.755 677.032 L 810.755 677.032 L 810.755 677.032 L 810.755 677.032 L 810.755 677.032 L 810.755 677.032 Z  M 823.676 696.085 L 831.121 699.014 L 828.192 706.459 L 820.747 703.53 L 823.676 696.085 L 823.676 696.085 L 823.676 696.085 L 823.676 696.085 L 823.676 696.085 L 823.676 696.085 L 823.676 696.085 L 823.676 696.085 L 823.676 696.085 L 823.676 696.085 L 823.676 696.085 L 823.676 696.085 L 823.676 696.085 L 823.676 696.085 L 823.676 696.085 L 823.676 696.085 L 823.676 696.085 L 823.676 696.085 L 823.676 696.085 L 823.676 696.085 L 823.676 696.085 L 823.676 696.085 L 823.676 696.085 L 823.676 696.085 L 823.676 696.085 L 823.676 696.085 L 823.676 696.085 L 823.676 696.085 L 823.676 696.085 L 823.676 696.085 L 823.676 696.085 L 823.676 696.085 L 823.676 696.085 L 823.676 696.085 L 823.676 696.085 L 823.676 696.085 Z  M 815.301 692.79 L 822.746 695.719 L 819.817 703.164 L 812.372 700.235 L 815.301 692.79 L 815.301 692.79 L 815.301 692.79 L 815.301 692.79 L 815.301 692.79 L 815.301 692.79 L 815.301 692.79 L 815.301 692.79 L 815.301 692.79 L 815.301 692.79 L 815.301 692.79 L 815.301 692.79 L 815.301 692.79 L 815.301 692.79 L 815.301 692.79 L 815.301 692.79 L 815.301 692.79 L 815.301 692.79 L 815.301 692.79 L 815.301 692.79 L 815.301 692.79 L 815.301 692.79 L 815.301 692.79 L 815.301 692.79 L 815.301 692.79 L 815.301 692.79 L 815.301 692.79 L 815.301 692.79 L 815.301 692.79 L 815.301 692.79 L 815.301 692.79 L 815.301 692.79 L 815.301 692.79 L 815.301 692.79 L 815.301 692.79 Z  M 805.995 689.129 L 813.44 692.058 L 810.511 699.503 L 803.066 696.574 L 805.995 689.129 L 805.995 689.129 L 805.995 689.129 L 805.995 689.129 L 805.995 689.129 L 805.995 689.129 L 805.995 689.129 L 805.995 689.129 L 805.995 689.129 L 805.995 689.129 L 805.995 689.129 L 805.995 689.129 L 805.995 689.129 L 805.995 689.129 L 805.995 689.129 L 805.995 689.129 L 805.995 689.129 L 805.995 689.129 L 805.995 689.129 L 805.995 689.129 L 805.995 689.129 L 805.995 689.129 L 805.995 689.129 L 805.995 689.129 L 805.995 689.129 L 805.995 689.129 L 805.995 689.129 L 805.995 689.129 L 805.995 689.129 L 805.995 689.129 L 805.995 689.129 L 805.995 689.129 L 805.995 689.129 L 805.995 689.129 Z  M 818.917 708.183 L 826.361 711.112 L 823.433 718.556 L 815.988 715.627 L 818.917 708.183 L 818.917 708.183 L 818.917 708.183 L 818.917 708.183 L 818.917 708.183 L 818.917 708.183 L 818.917 708.183 L 818.917 708.183 L 818.917 708.183 L 818.917 708.183 L 818.917 708.183 L 818.917 708.183 L 818.917 708.183 L 818.917 708.183 L 818.917 708.183 L 818.917 708.183 L 818.917 708.183 L 818.917 708.183 L 818.917 708.183 L 818.917 708.183 L 818.917 708.183 L 818.917 708.183 L 818.917 708.183 L 818.917 708.183 L 818.917 708.183 L 818.917 708.183 L 818.917 708.183 L 818.917 708.183 L 818.917 708.183 L 818.917 708.183 L 818.917 708.183 L 818.917 708.183 L 818.917 708.183 Z  M 810.542 704.888 L 817.986 707.817 L 815.057 715.261 L 807.613 712.333 L 810.542 704.888 L 810.542 704.888 L 810.542 704.888 L 810.542 704.888 L 810.542 704.888 L 810.542 704.888 L 810.542 704.888 L 810.542 704.888 L 810.542 704.888 L 810.542 704.888 L 810.542 704.888 L 810.542 704.888 L 810.542 704.888 L 810.542 704.888 L 810.542 704.888 L 810.542 704.888 L 810.542 704.888 L 810.542 704.888 L 810.542 704.888 L 810.542 704.888 L 810.542 704.888 L 810.542 704.888 L 810.542 704.888 L 810.542 704.888 L 810.542 704.888 L 810.542 704.888 L 810.542 704.888 L 810.542 704.888 L 810.542 704.888 L 810.542 704.888 L 810.542 704.888 L 810.542 704.888 Z  M 801.236 701.227 L 808.68 704.156 L 805.752 711.6 L 798.307 708.672 L 801.236 701.227 L 801.236 701.227 L 801.236 701.227 L 801.236 701.227 L 801.236 701.227 L 801.236 701.227 L 801.236 701.227 L 801.236 701.227 L 801.236 701.227 L 801.236 701.227 L 801.236 701.227 L 801.236 701.227 L 801.236 701.227 L 801.236 701.227 L 801.236 701.227 L 801.236 701.227 L 801.236 701.227 L 801.236 701.227 L 801.236 701.227 L 801.236 701.227 L 801.236 701.227 L 801.236 701.227 L 801.236 701.227 L 801.236 701.227 L 801.236 701.227 L 801.236 701.227 L 801.236 701.227 L 801.236 701.227 L 801.236 701.227 L 801.236 701.227 L 801.236 701.227 Z  M 814.157 720.28 L 821.602 723.209 L 818.673 730.654 L 811.229 727.725 L 814.157 720.28 L 814.157 720.28 L 814.157 720.28 L 814.157 720.28 L 814.157 720.28 L 814.157 720.28 L 814.157 720.28 L 814.157 720.28 L 814.157 720.28 L 814.157 720.28 L 814.157 720.28 L 814.157 720.28 L 814.157 720.28 L 814.157 720.28 L 814.157 720.28 L 814.157 720.28 L 814.157 720.28 L 814.157 720.28 L 814.157 720.28 L 814.157 720.28 L 814.157 720.28 L 814.157 720.28 L 814.157 720.28 L 814.157 720.28 L 814.157 720.28 L 814.157 720.28 L 814.157 720.28 L 814.157 720.28 L 814.157 720.28 L 814.157 720.28 Z  M 805.782 716.985 L 813.227 719.914 L 810.298 727.359 L 802.853 724.43 L 805.782 716.985 L 805.782 716.985 L 805.782 716.985 L 805.782 716.985 L 805.782 716.985 L 805.782 716.985 L 805.782 716.985 L 805.782 716.985 L 805.782 716.985 L 805.782 716.985 L 805.782 716.985 L 805.782 716.985 L 805.782 716.985 L 805.782 716.985 L 805.782 716.985 L 805.782 716.985 L 805.782 716.985 L 805.782 716.985 L 805.782 716.985 L 805.782 716.985 L 805.782 716.985 L 805.782 716.985 L 805.782 716.985 L 805.782 716.985 L 805.782 716.985 L 805.782 716.985 L 805.782 716.985 L 805.782 716.985 L 805.782 716.985 Z  M 796.477 713.324 L 803.921 716.253 L 800.992 723.698 L 793.548 720.769 L 796.477 713.324 L 796.477 713.324 L 796.477 713.324 L 796.477 713.324 L 796.477 713.324 L 796.477 713.324 L 796.477 713.324 L 796.477 713.324 L 796.477 713.324 L 796.477 713.324 L 796.477 713.324 L 796.477 713.324 L 796.477 713.324 L 796.477 713.324 L 796.477 713.324 L 796.477 713.324 L 796.477 713.324 L 796.477 713.324 L 796.477 713.324 L 796.477 713.324 L 796.477 713.324 L 796.477 713.324 L 796.477 713.324 L 796.477 713.324 L 796.477 713.324 L 796.477 713.324 L 796.477 713.324 L 796.477 713.324 Z  M 809.398 732.378 L 816.843 735.307 L 813.914 742.751 L 806.469 739.822 L 809.398 732.378 L 809.398 732.378 L 809.398 732.378 L 809.398 732.378 L 809.398 732.378 L 809.398 732.378 L 809.398 732.378 L 809.398 732.378 L 809.398 732.378 L 809.398 732.378 L 809.398 732.378 L 809.398 732.378 L 809.398 732.378 L 809.398 732.378 L 809.398 732.378 L 809.398 732.378 L 809.398 732.378 L 809.398 732.378 L 809.398 732.378 L 809.398 732.378 L 809.398 732.378 L 809.398 732.378 L 809.398 732.378 L 809.398 732.378 L 809.398 732.378 L 809.398 732.378 L 809.398 732.378 Z  M 801.023 729.083 L 808.468 732.012 L 805.539 739.456 L 798.094 736.527 L 801.023 729.083 L 801.023 729.083 L 801.023 729.083 L 801.023 729.083 L 801.023 729.083 L 801.023 729.083 L 801.023 729.083 L 801.023 729.083 L 801.023 729.083 L 801.023 729.083 L 801.023 729.083 L 801.023 729.083 L 801.023 729.083 L 801.023 729.083 L 801.023 729.083 L 801.023 729.083 L 801.023 729.083 L 801.023 729.083 L 801.023 729.083 L 801.023 729.083 L 801.023 729.083 L 801.023 729.083 L 801.023 729.083 L 801.023 729.083 L 801.023 729.083 L 801.023 729.083 Z  M 791.717 725.422 L 799.162 728.351 L 796.233 735.795 L 788.788 732.866 L 791.717 725.422 L 791.717 725.422 L 791.717 725.422 L 791.717 725.422 L 791.717 725.422 L 791.717 725.422 L 791.717 725.422 L 791.717 725.422 L 791.717 725.422 L 791.717 725.422 L 791.717 725.422 L 791.717 725.422 L 791.717 725.422 L 791.717 725.422 L 791.717 725.422 L 791.717 725.422 L 791.717 725.422 L 791.717 725.422 L 791.717 725.422 L 791.717 725.422 L 791.717 725.422 L 791.717 725.422 L 791.717 725.422 L 791.717 725.422 L 791.717 725.422 Z  M 804.639 744.475 L 812.083 747.404 L 809.155 754.849 L 801.71 751.92 L 804.639 744.475 L 804.639 744.475 L 804.639 744.475 L 804.639 744.475 L 804.639 744.475 L 804.639 744.475 L 804.639 744.475 L 804.639 744.475 L 804.639 744.475 L 804.639 744.475 L 804.639 744.475 L 804.639 744.475 L 804.639 744.475 L 804.639 744.475 L 804.639 744.475 L 804.639 744.475 L 804.639 744.475 L 804.639 744.475 L 804.639 744.475 L 804.639 744.475 L 804.639 744.475 L 804.639 744.475 L 804.639 744.475 L 804.639 744.475 Z  M 796.264 741.18 L 803.708 744.109 L 800.779 751.554 L 793.335 748.625 L 796.264 741.18 L 796.264 741.18 L 796.264 741.18 L 796.264 741.18 L 796.264 741.18 L 796.264 741.18 L 796.264 741.18 L 796.264 741.18 L 796.264 741.18 L 796.264 741.18 L 796.264 741.18 L 796.264 741.18 L 796.264 741.18 L 796.264 741.18 L 796.264 741.18 L 796.264 741.18 L 796.264 741.18 L 796.264 741.18 L 796.264 741.18 L 796.264 741.18 L 796.264 741.18 L 796.264 741.18 L 796.264 741.18 Z  M 786.958 737.519 L 794.403 740.448 L 791.474 747.893 L 784.029 744.964 L 786.958 737.519 L 786.958 737.519 L 786.958 737.519 L 786.958 737.519 L 786.958 737.519 L 786.958 737.519 L 786.958 737.519 L 786.958 737.519 L 786.958 737.519 L 786.958 737.519 L 786.958 737.519 L 786.958 737.519 L 786.958 737.519 L 786.958 737.519 L 786.958 737.519 L 786.958 737.519 L 786.958 737.519 L 786.958 737.519 L 786.958 737.519 L 786.958 737.519 L 786.958 737.519 L 786.958 737.519 Z  M 799.88 756.573 L 807.324 759.502 L 804.395 766.946 L 796.951 764.017 L 799.88 756.573 L 799.88 756.573 L 799.88 756.573 L 799.88 756.573 L 799.88 756.573 L 799.88 756.573 L 799.88 756.573 L 799.88 756.573 L 799.88 756.573 L 799.88 756.573 L 799.88 756.573 L 799.88 756.573 L 799.88 756.573 L 799.88 756.573 L 799.88 756.573 L 799.88 756.573 L 799.88 756.573 L 799.88 756.573 L 799.88 756.573 L 799.88 756.573 L 799.88 756.573 Z  M 791.504 753.278 L 798.949 756.207 L 796.02 763.651 L 788.576 760.722 L 791.504 753.278 L 791.504 753.278 L 791.504 753.278 L 791.504 753.278 L 791.504 753.278 L 791.504 753.278 L 791.504 753.278 L 791.504 753.278 L 791.504 753.278 L 791.504 753.278 L 791.504 753.278 L 791.504 753.278 L 791.504 753.278 L 791.504 753.278 L 791.504 753.278 L 791.504 753.278 L 791.504 753.278 L 791.504 753.278 L 791.504 753.278 L 791.504 753.278 Z  M 782.199 749.617 L 789.643 752.546 L 786.714 759.99 L 779.27 757.061 L 782.199 749.617 L 782.199 749.617 L 782.199 749.617 L 782.199 749.617 L 782.199 749.617 L 782.199 749.617 L 782.199 749.617 L 782.199 749.617 L 782.199 749.617 L 782.199 749.617 L 782.199 749.617 L 782.199 749.617 L 782.199 749.617 L 782.199 749.617 L 782.199 749.617 L 782.199 749.617 L 782.199 749.617 L 782.199 749.617 L 782.199 749.617 Z  M 795.12 768.67 L 802.565 771.599 L 799.636 779.044 L 792.191 776.115 L 795.12 768.67 L 795.12 768.67 L 795.12 768.67 L 795.12 768.67 L 795.12 768.67 L 795.12 768.67 L 795.12 768.67 L 795.12 768.67 L 795.12 768.67 L 795.12 768.67 L 795.12 768.67 L 795.12 768.67 L 795.12 768.67 L 795.12 768.67 L 795.12 768.67 L 795.12 768.67 L 795.12 768.67 L 795.12 768.67 Z  M 786.745 765.375 L 794.19 768.304 L 791.261 775.749 L 783.816 772.82 L 786.745 765.375 L 786.745 765.375 L 786.745 765.375 L 786.745 765.375 L 786.745 765.375 L 786.745 765.375 L 786.745 765.375 L 786.745 765.375 L 786.745 765.375 L 786.745 765.375 L 786.745 765.375 L 786.745 765.375 L 786.745 765.375 L 786.745 765.375 L 786.745 765.375 L 786.745 765.375 L 786.745 765.375 Z  M 777.439 761.714 L 784.884 764.643 L 781.955 772.088 L 774.51 769.159 L 777.439 761.714 L 777.439 761.714 L 777.439 761.714 L 777.439 761.714 L 777.439 761.714 L 777.439 761.714 L 777.439 761.714 L 777.439 761.714 L 777.439 761.714 L 777.439 761.714 L 777.439 761.714 L 777.439 761.714 L 777.439 761.714 L 777.439 761.714 L 777.439 761.714 L 777.439 761.714 Z  M 790.361 780.768 L 797.805 783.697 L 794.877 791.141 L 787.432 788.212 L 790.361 780.768 L 790.361 780.768 L 790.361 780.768 L 790.361 780.768 L 790.361 780.768 L 790.361 780.768 L 790.361 780.768 L 790.361 780.768 L 790.361 780.768 L 790.361 780.768 L 790.361 780.768 L 790.361 780.768 L 790.361 780.768 L 790.361 780.768 L 790.361 780.768 Z  M 781.986 777.473 L 789.43 780.402 L 786.502 787.846 L 779.057 784.917 L 781.986 777.473 L 781.986 777.473 L 781.986 777.473 L 781.986 777.473 L 781.986 777.473 L 781.986 777.473 L 781.986 777.473 L 781.986 777.473 L 781.986 777.473 L 781.986 777.473 L 781.986 777.473 L 781.986 777.473 L 781.986 777.473 L 781.986 777.473 Z  M 772.68 773.812 L 780.125 776.741 L 777.196 784.185 L 769.751 781.256 L 772.68 773.812 L 772.68 773.812 L 772.68 773.812 L 772.68 773.812 L 772.68 773.812 L 772.68 773.812 L 772.68 773.812 L 772.68 773.812 L 772.68 773.812 L 772.68 773.812 L 772.68 773.812 L 772.68 773.812 L 772.68 773.812 Z  M 785.602 792.865 L 793.046 795.794 L 790.117 803.239 L 782.673 800.31 L 785.602 792.865 L 785.602 792.865 L 785.602 792.865 L 785.602 792.865 L 785.602 792.865 L 785.602 792.865 L 785.602 792.865 L 785.602 792.865 L 785.602 792.865 L 785.602 792.865 L 785.602 792.865 L 785.602 792.865 Z  M 777.226 789.57 L 784.671 792.499 L 781.742 799.944 L 774.298 797.015 L 777.226 789.57 L 777.226 789.57 L 777.226 789.57 L 777.226 789.57 L 777.226 789.57 L 777.226 789.57 L 777.226 789.57 L 777.226 789.57 L 777.226 789.57 L 777.226 789.57 L 777.226 789.57 Z  M 767.921 785.909 L 775.365 788.838 L 772.436 796.283 L 764.992 793.354 L 767.921 785.909 L 767.921 785.909 L 767.921 785.909 L 767.921 785.909 L 767.921 785.909 L 767.921 785.909 L 767.921 785.909 L 767.921 785.909 L 767.921 785.909 L 767.921 785.909 Z  M 780.842 804.963 L 788.287 807.891 L 785.358 815.336 L 777.913 812.407 L 780.842 804.963 L 780.842 804.963 L 780.842 804.963 L 780.842 804.963 L 780.842 804.963 L 780.842 804.963 L 780.842 804.963 L 780.842 804.963 L 780.842 804.963 Z  M 772.467 801.668 L 779.912 804.597 L 776.983 812.041 L 769.538 809.112 L 772.467 801.668 L 772.467 801.668 L 772.467 801.668 L 772.467 801.668 L 772.467 801.668 L 772.467 801.668 L 772.467 801.668 L 772.467 801.668 Z  M 763.161 798.007 L 770.606 800.936 L 767.677 808.38 L 760.233 805.451 L 763.161 798.007 L 763.161 798.007 L 763.161 798.007 L 763.161 798.007 L 763.161 798.007 L 763.161 798.007 L 763.161 798.007 Z  M 776.083 817.06 L 783.528 819.989 L 780.599 827.434 L 773.154 824.505 L 776.083 817.06 L 776.083 817.06 L 776.083 817.06 L 776.083 817.06 L 776.083 817.06 L 776.083 817.06 Z  M 767.708 813.765 L 775.152 816.694 L 772.224 824.139 L 764.779 821.21 L 767.708 813.765 L 767.708 813.765 L 767.708 813.765 L 767.708 813.765 L 767.708 813.765 Z  M 758.402 810.104 L 765.847 813.033 L 762.918 820.478 L 755.473 817.549 L 758.402 810.104 L 758.402 810.104 L 758.402 810.104 L 758.402 810.104 Z  M 771.324 829.158 L 778.768 832.086 L 775.839 839.531 L 768.395 836.602 L 771.324 829.158 L 771.324 829.158 L 771.324 829.158 Z  M 762.948 825.863 L 770.393 828.792 L 767.464 836.236 L 760.02 833.307 L 762.948 825.863 L 762.948 825.863 Z  M 753.643 822.202 L 761.087 825.13 L 758.158 832.575 L 750.714 829.646 L 753.643 822.202 Z " fill-rule="evenodd" fill="url(#_lgradient_9)"/><circle vector-effect="non-scaling-stroke" cx="506.54345500046463" cy="206.2459716796876" r="8" fill="rgb(68,68,68)" stroke-width="1" stroke="rgb(0,0,0)" stroke-linejoin="miter" stroke-linecap="square" stroke-miterlimit="3"/><clipPath id="_clipPath_ttqGVoK1q95bK8a5txP5yHmMv3hf4SV6"><circle vector-effect="non-scaling-stroke" cx="506.54345500046463" cy="206.2459716796876" r="8" fill="rgb(68,68,68)" stroke-width="1" stroke="rgb(0,0,0)" stroke-linejoin="miter" stroke-linecap="square" stroke-miterlimit="3"/></clipPath><g clip-path="url(#_clipPath_ttqGVoK1q95bK8a5txP5yHmMv3hf4SV6)"><line x1="514.543" y1="206.246" x2="498.543" y2="206.246" vector-effect="non-scaling-stroke" stroke-width="1" stroke="rgb(0,0,0)" stroke-linejoin="miter" stroke-linecap="square" stroke-miterlimit="3"/></g><circle vector-effect="non-scaling-stroke" cx="506.54345500046463" cy="206.2459716796876" r="8" fill="transparent" stroke-width="1" stroke="rgb(0,0,0)" stroke-linejoin="miter" stroke-linecap="square" stroke-miterlimit="3"/><path d=" M 471.543 203.246 C 467.128 203.246 463.543 199.661 463.543 195.246 C 463.543 190.831 467.128 187.246 471.543 187.246 C 475.959 187.246 479.543 190.831 479.543 195.246 C 479.543 199.661 475.959 203.246 471.543 203.246 Z " fill="rgb(68,68,68)" vector-effect="non-scaling-stroke" stroke-width="1" stroke="rgb(0,0,0)" stroke-linejoin="miter" stroke-linecap="square" stroke-miterlimit="3"/><clipPath id="_clipPath_rhRj3txfuYeVmM2Nk68ACrzZXORLeE9t"><path d=" M 471.543 203.246 C 467.128 203.246 463.543 199.661 463.543 195.246 C 463.543 190.831 467.128 187.246 471.543 187.246 C 475.959 187.246 479.543 190.831 479.543 195.246 C 479.543 199.661 475.959 203.246 471.543 203.246 Z " fill="rgb(68,68,68)" vector-effect="non-scaling-stroke" stroke-width="1" stroke="rgb(0,0,0)" stroke-linejoin="miter" stroke-linecap="square" stroke-miterlimit="3"/></clipPath><g clip-path="url(#_clipPath_rhRj3txfuYeVmM2Nk68ACrzZXORLeE9t)"><line x1="471.543" y1="187.246" x2="471.543" y2="203.246" vector-effect="non-scaling-stroke" stroke-width="1" stroke="rgb(0,0,0)" stroke-linejoin="miter" stroke-linecap="square" stroke-miterlimit="3"/></g><path d=" M 471.543 203.246 C 467.128 203.246 463.543 199.661 463.543 195.246 C 463.543 190.831 467.128 187.246 471.543 187.246 C 475.959 187.246 479.543 190.831 479.543 195.246 C 479.543 199.661 475.959 203.246 471.543 203.246 Z " fill="transparent" vector-effect="non-scaling-stroke" stroke-width="1" stroke="rgb(0,0,0)" stroke-linejoin="miter" stroke-linecap="square" stroke-miterlimit="3"/></g></svg>